<?xml version="1.0" encoding="UTF-8" standalone="no"?>
<svg
   xmlns:dc="http://purl.org/dc/elements/1.1/"
   xmlns:cc="http://creativecommons.org/ns#"
   xmlns:rdf="http://www.w3.org/1999/02/22-rdf-syntax-ns#"
   xmlns:svg="http://www.w3.org/2000/svg"
   xmlns="http://www.w3.org/2000/svg"
   id="svg8"
   version="1.1"
   viewBox="0 0 75.940269 104.41561"
   height="104.41561mm"
   width="75.940269mm">
  <defs
     id="defs2" />
  <metadata
     id="metadata5">
    <rdf:RDF>
      <cc:Work
         rdf:about="">
        <dc:format>image/svg+xml</dc:format>
        <dc:type
           rdf:resource="http://purl.org/dc/dcmitype/StillImage" />
        <dc:title></dc:title>
      </cc:Work>
    </rdf:RDF>
  </metadata>
  <g
     transform="translate(97.785506,-25.313036)"
     id="layer1">
    <path
       id="path815"
       d="m -59.814976,25.313036 c -20.970237,0 -37.97053,16.999511 -37.97053,37.969743 0,20.97023 37.97053,66.445871 37.97053,66.445871 0,0 37.969739,-45.475631 37.969739,-66.445871 0,-20.970236 -16.99951,-37.969743 -37.969739,-37.969743 z m 0,16.470284 a 17.899214,17.899214 0 0 1 17.898649,17.899439 17.899214,17.899214 0 0 1 -17.898649,17.89943 17.899214,17.899214 0 0 1 -17.899439,-17.89943 17.899214,17.899214 0 0 1 17.899439,-17.899439 z"
       style="opacity:1;fill:#002e4f;fill-opacity:1;stroke:none;stroke-width:21.30884361;stroke-linecap:square;stroke-linejoin:miter;stroke-miterlimit:4;stroke-dasharray:none;stroke-dashoffset:0;stroke-opacity:1;paint-order:markers stroke fill" />
  </g>
</svg>
