<?xml version="1.0" encoding="UTF-8" standalone="no"?>
<svg
   xmlns:dc="http://purl.org/dc/elements/1.1/"
   xmlns:cc="http://creativecommons.org/ns#"
   xmlns:rdf="http://www.w3.org/1999/02/22-rdf-syntax-ns#"
   xmlns:svg="http://www.w3.org/2000/svg"
   xmlns="http://www.w3.org/2000/svg"
   id="svg1054"
   version="1.1"
   viewBox="0 0 132.29166 132.29167"
   height="500"
   width="500">
  <defs
     id="defs1048" />
  <metadata
     id="metadata1051">
    <rdf:RDF>
      <cc:Work
         rdf:about="">
        <dc:format>image/svg+xml</dc:format>
        <dc:type
           rdf:resource="http://purl.org/dc/dcmitype/StillImage" />
        <dc:title></dc:title>
      </cc:Work>
    </rdf:RDF>
  </metadata>
  <g
     transform="translate(0,-164.70832)"
     id="layer1">
    <path
       style="fill:#000000;stroke-width:0.41976118"
       d="M 14.168208,273.8498 H 76.725576 V 233.77691 H 91.086473 L 46.134836,188.89306 0.79145781,234.17012 H 14.168208 Z"
       id="shape1" />
    <path
       style="fill:#000000;stroke-width:0.41976118"
       d="m 77.108262,214.0367 v -18.57792 h -10.17781 v 8.53578"
       id="shape18" />
    <g
       transform="matrix(0.24817282,0,0,0.24817282,76.226291,191.14807)"
       id="ic_x5F_108_Wärme"
       style="fill:none;stroke-width:1.06612539">
      <g
         id="group1"
         style="fill:none;stroke-width:1.06612539">
        <path
           d="m 191.39647,278.96262 c 0,19.59295 -15.88658,35.47148 -35.47651,35.47148 -19.59708,0 -35.47601,-15.87853 -35.47601,-35.47148 0,-19.59375 15.87943,-35.4745 35.47601,-35.4745 19.59043,0 35.47651,15.88126 35.47651,35.4745 z"
           id="shape1-4"
           style="fill:#000000;stroke-width:0.74814218" />
        <g
           transform="matrix(0.50289904,0,0,0.50289904,136.61818,132.80556)"
           id="group2"
           style="fill:none;stroke-width:1.48765874">
          <path
             d="m 37.4615,19.4045 c 9.944,0 18.0352,8.0909 18.0352,18.0369 V 220.112 H 19.4133 V 37.4414 c -0.001,-9.946 8.0962,-18.0369 18.0482,-18.0369 M 37.4615,0 C 16.7809,0 0,16.7602 0,37.4414 V 239.518 H 74.91 V 37.4414 C 74.91,16.7602 58.1421,0 37.4615,0 Z"
             transform="translate(0.625,0.625)"
             id="shape2"
             style="fill:#000000;stroke-width:1.48765874" />
        </g>
        <rect
           height="45.232349pt"
           width="24.922398pt"
           id="shape3"
           x="136.93201"
           y="197.15402"
           style="fill:#000000;stroke-width:0.68013221" />
        <path
           d="m 195.71839,166.12263 h 15.70654"
           stroke-miterlimit="2.00000000000"
           id="shape4"
           style="fill:none;stroke:#000000;stroke-width:19.37657928;stroke-linecap:round;stroke-linejoin:miter;stroke-miterlimit:2" />
        <path
           d="m 195.71839,197.2712 h 15.70654"
           stroke-miterlimit="2.00000000000"
           id="shape5"
           style="fill:none;stroke:#000000;stroke-width:19.37657928;stroke-linecap:round;stroke-linejoin:miter;stroke-miterlimit:2" />
        <path
           d="m 195.71839,228.42076 h 15.70654"
           stroke-miterlimit="2.00000000000"
           id="shape6"
           style="fill:none;stroke:#000000;stroke-width:19.37657928;stroke-linecap:round;stroke-linejoin:miter;stroke-miterlimit:2" />
        <rect
           ry="2.6707109e-13"
           y="271.64581"
           x="-76.950035"
           height="18.500519"
           width="180.95117"
           id="rect989"
           style="opacity:1;fill:#000001;fill-opacity:1;stroke:none;stroke-width:33.84402466;stroke-linecap:round;stroke-linejoin:round;stroke-miterlimit:4;stroke-dasharray:none;stroke-dashoffset:0;stroke-opacity:1;paint-order:markers stroke fill" />
      </g>
    </g>
  </g>
</svg>
