<?xml version="1.0" encoding="UTF-8" standalone="no"?>
<svg
   xmlns:dc="http://purl.org/dc/elements/1.1/"
   xmlns:cc="http://creativecommons.org/ns#"
   xmlns:rdf="http://www.w3.org/1999/02/22-rdf-syntax-ns#"
   xmlns:svg="http://www.w3.org/2000/svg"
   xmlns="http://www.w3.org/2000/svg"
   xmlns:sodipodi="http://sodipodi.sourceforge.net/DTD/sodipodi-0.dtd"
   xmlns:inkscape="http://www.inkscape.org/namespaces/inkscape"
   id="svg1054"
   version="1.1"
   viewBox="0 0 132.29166 132.29167"
   height="500"
   width="500"
   sodipodi:docname="129.svg"
   inkscape:version="0.92.3 (2405546, 2018-03-11)">
  <sodipodi:namedview
     pagecolor="#ffffff"
     bordercolor="#666666"
     borderopacity="1"
     objecttolerance="10"
     gridtolerance="10"
     guidetolerance="10"
     inkscape:pageopacity="0"
     inkscape:pageshadow="2"
     inkscape:window-width="1920"
     inkscape:window-height="1031"
     id="namedview18"
     showgrid="false"
     inkscape:zoom="0.944"
     inkscape:cx="10.59322"
     inkscape:cy="250"
     inkscape:window-x="0"
     inkscape:window-y="25"
     inkscape:window-maximized="1"
     inkscape:current-layer="group1" />
  <defs
     id="defs1048" />
  <metadata
     id="metadata1051">
    <rdf:RDF>
      <cc:Work
         rdf:about="">
        <dc:format>image/svg+xml</dc:format>
        <dc:type
           rdf:resource="http://purl.org/dc/dcmitype/StillImage" />
        <dc:title></dc:title>
      </cc:Work>
    </rdf:RDF>
  </metadata>
  <g
     transform="translate(0,-164.70832)"
     id="layer1">
    <g
       transform="matrix(0.24817282,0,0,0.24817282,76.226291,191.14807)"
       id="ic_x5F_108_Wärme"
       style="fill:none;stroke-width:1.06612539">
      <g
         id="group1"
         style="fill:none;stroke-width:1.06612539">
        <path
           style="opacity:1;fill:#002e4f;fill-opacity:1;stroke:none;stroke-width:1.06612527px;stroke-linecap:butt;stroke-linejoin:miter;stroke-opacity:1"
           d="M -40.028532,-102.34564 -304.96379,112.56544 V 426.5975 H 223.97938 V 107.00793 Z m 54.654301,171.3751 40.76055,33.34833 10.18764,-11.11833 17.60319,18.52724 -10.190963,9.26359 17.599842,13.89709 13.893772,50.02082 -13.893772,12.04236 -10.19095,-2.77873 -38.905837,-36.12708 -48.169446,54.6543 -22.233318,-23.15738 50.951519,-50.94818 -37.981796,-37.9818 z m -128.219439,9.263619 32.420967,31.496951 -4.630132,37.05444 160.256779,164.88695 4.630144,24.08473 -7.408881,7.41222 -26.863486,-2.77877 -160.260111,-161.18416 -37.97847,6.48488 -32.42098,-33.34835 v -28.7182 l 22.23,21.30598 15.74847,-0.92403 28.71819,-27.79083 -0.92736,-13.8971 -22.2333,-22.229994 z m 37.978464,160.256811 23.160691,22.23334 -86.151225,97.26625 -27.79085,-25.93611 z"
           id="path817"
           inkscape:connector-curvature="0" />
      </g>
    </g>
  </g>
</svg>
