<?xml version="1.0" encoding="UTF-8" standalone="no"?>
<svg
   xmlns:dc="http://purl.org/dc/elements/1.1/"
   xmlns:cc="http://creativecommons.org/ns#"
   xmlns:rdf="http://www.w3.org/1999/02/22-rdf-syntax-ns#"
   xmlns:svg="http://www.w3.org/2000/svg"
   xmlns="http://www.w3.org/2000/svg"
   width="500"
   height="500"
   viewBox="0 0 132.29166 132.29167"
   version="1.1"
   id="svg1054">
  <defs
     id="defs1048" />
  <metadata
     id="metadata1051">
    <rdf:RDF>
      <cc:Work
         rdf:about="">
        <dc:format>image/svg+xml</dc:format>
        <dc:type
           rdf:resource="http://purl.org/dc/dcmitype/StillImage" />
        <dc:title></dc:title>
      </cc:Work>
    </rdf:RDF>
  </metadata>
  <g
     id="layer1"
     transform="translate(0,-164.70832)">
    <g
       style="fill:none;stroke-width:1.06612539"
       id="ic_x5F_108_Wärme"
       transform="matrix(0.24817282,0,0,0.24817282,76.226291,191.14807)">
      <g
         style="fill:none;stroke-width:1.06612539"
         id="group1">
        <path
           id="path821"
           d="m 35.458601,-103.97279 c -2.002749,-0.004 -4.026885,0.0146 -6.070303,0.0572 -65.389418,1.36227 -133.503018,28.607894 -174.371388,84.461349 -20.80248,28.4300459 -37.0015,61.108964 -46.47132,99.447233 h -42.32041 l -10.02874,54.492208 h 43.92252 c -1.03178,14.70467 -1.18221,30.12935 -0.39013,46.31526 h -29.4776 l -10.02872,54.49219 h 45.92774 c 16.79643,82.01362 63.60056,126.89161 87.01014,141.67661 25.652372,16.20149 107.51372655,77.8757 238.93395,24.60368 L 131.32711,297.22059 C 120.85286,308.37742 81.157102,343.74927 6.2280865,333.37446 -48.690062,325.77042 -75.296438,281.48309 -86.945988,235.29266 H 74.837481 L 84.866214,180.80047 H -94.613188 c -0.36518,-8.806 -0.31985,-17.09402 0.0339,-24.52047 0.34108,-7.16293 0.68292,-14.45315 1.14695,-21.79479 H 94.915794 L 104.94193,79.993002 H -85.801628 c 8.26122,-32.02884 25.205506,-61.180149 62.060559,-80.37547931 C 41.523218,-34.374294 110.8481,2.1970482 116.53109,13.172943 l 21.06658,-96.321002 C 128.36246,-87.434508 89.451678,-103.86851 35.458601,-103.97275 Z"
           style="fill:#002e4f;fill-opacity:1;stroke:none;stroke-width:1.06612527px;stroke-linecap:butt;stroke-linejoin:miter;stroke-opacity:1" />
      </g>
    </g>
  </g>
</svg>
