<?xml version="1.0" encoding="UTF-8" standalone="no"?>
<svg
   xmlns:dc="http://purl.org/dc/elements/1.1/"
   xmlns:cc="http://creativecommons.org/ns#"
   xmlns:rdf="http://www.w3.org/1999/02/22-rdf-syntax-ns#"
   xmlns:svg="http://www.w3.org/2000/svg"
   xmlns="http://www.w3.org/2000/svg"
   width="500"
   height="500"
   viewBox="0 0 132.29166 132.29167"
   version="1.1"
   id="svg1054">
  <defs
     id="defs1048" />
  <metadata
     id="metadata1051">
    <rdf:RDF>
      <cc:Work
         rdf:about="">
        <dc:format>image/svg+xml</dc:format>
        <dc:type
           rdf:resource="http://purl.org/dc/dcmitype/StillImage" />
        <dc:title></dc:title>
      </cc:Work>
    </rdf:RDF>
  </metadata>
  <g
     id="layer1"
     transform="translate(0,-164.70832)">
    <g
       style="fill:none;stroke-width:1.06612539"
       id="ic_x5F_108_Wärme"
       transform="matrix(0.24817282,0,0,0.24817282,76.226291,191.14807)">
      <g
         style="fill:none;stroke-width:1.06612539"
         id="group1">
        <g
           transform="matrix(1.5898194,0,0,1.5898194,-204.80557,-103.9337)"
           id="ic_x5F_25_Dampfturbine"
           style="fill:none;stroke-width:0.71493858">
          <g
             id="group3"
             style="fill:none;stroke-width:0.71493858" />
          <g
             transform="matrix(1.0845898,0,0,1.0904198,-74.182753,45.51704)"
             id="ic_x5F_74_Elektromotor"
             style="fill:none;stroke-width:0.44085887">
            <g
               id="group1-0"
               style="fill:none;stroke-width:0.44085887">
              <path
                 id="shape2"
                 transform="matrix(0.61829389,0,0,0.61498814,9.0429131,-43.244751)"
                 d="M 148.73242 142.67773 L 118.61328 196.17188 L 58.964844 196.17188 L 58.964844 344.43945 L 110.41211 345.42969 L 161.63281 405.28711 L 366.52734 405.28711 L 426.32227 345.30664 L 457.7168 345.30664 L 457.7168 398.80273 L 480.41797 398.80273 L 498.07812 346.61328 L 498.07812 220.16797 L 479.2207 168.66992 L 457.7168 169.01953 L 457.7168 220.48633 L 427.04492 220.48633 L 427.04492 184.82422 L 380.80469 184.82422 L 342.30859 142.67773 L 148.73242 142.67773 z M 246.45508 181.93945 L 278.9668 181.93945 L 233.11914 286.24609 L 291.05469 253.99609 L 265.20898 345.70703 L 278.13477 345.74219 L 255.20703 383.02734 L 244.78711 341.54297 L 257.29297 344.47852 L 257.29297 292.95703 L 210.1875 314.32227 L 246.45508 181.93945 z "
                 style="fill:#000000;stroke-width:0.71493858" />
              <path
                 d="M 0,0 V 121"
                 stroke-miterlimit="2.00000000000"
                 transform="translate(15,63.5)"
                 id="shape3"
                 style="fill:#000000;stroke:#000000;stroke-width:9.24958229;stroke-linecap:butt;stroke-linejoin:miter;stroke-miterlimit:2" />
              <path
                 d="M 122,0 H 0"
                 stroke-miterlimit="2.00000000000"
                 transform="translate(99.5,15)"
                 id="shape4"
                 style="fill:#000000;stroke:#000000;stroke-width:9.24958229;stroke-linecap:butt;stroke-linejoin:miter;stroke-miterlimit:2" />
              <path
                 d="M 29,0 H 0"
                 stroke-miterlimit="2.00000000000"
                 transform="translate(16.5,122)"
                 id="shape5"
                 style="fill:#000000;stroke:#000000;stroke-width:9.24958229;stroke-linecap:butt;stroke-linejoin:miter;stroke-miterlimit:2" />
              <path
                 d="M 0,29 V 0"
                 stroke-miterlimit="2.00000000000"
                 transform="translate(164,15.5)"
                 id="shape6"
                 style="fill:#000000;stroke:#000000;stroke-width:9.24958229;stroke-linecap:butt;stroke-linejoin:miter;stroke-miterlimit:2" />
            </g>
          </g>
        </g>
      </g>
    </g>
  </g>
</svg>
