<?xml version="1.0" encoding="UTF-8" standalone="no"?>
<svg
   xmlns:dc="http://purl.org/dc/elements/1.1/"
   xmlns:cc="http://creativecommons.org/ns#"
   xmlns:rdf="http://www.w3.org/1999/02/22-rdf-syntax-ns#"
   xmlns:svg="http://www.w3.org/2000/svg"
   xmlns="http://www.w3.org/2000/svg"
   width="500"
   height="500"
   viewBox="0 0 132.29166 132.29167"
   version="1.1"
   id="svg1054">
  <defs
     id="defs1048" />
  <metadata
     id="metadata1051">
    <rdf:RDF>
      <cc:Work
         rdf:about="">
        <dc:format>image/svg+xml</dc:format>
        <dc:type
           rdf:resource="http://purl.org/dc/dcmitype/StillImage" />
        <dc:title></dc:title>
      </cc:Work>
    </rdf:RDF>
  </metadata>
  <g
     id="layer1"
     transform="translate(0,-164.70832)">
    <g
       style="fill:none;stroke-width:1.06612539"
       id="ic_x5F_108_Wärme"
       transform="matrix(0.24817282,0,0,0.24817282,76.226291,191.14807)">
      <g
         style="fill:none;stroke-width:1.06612539"
         id="group1">
        <g
           transform="matrix(1.5898194,0,0,1.5898194,-204.80557,-103.9337)"
           id="ic_x5F_25_Dampfturbine"
           style="fill:none;stroke-width:0.71493858">
          <g
             id="group3"
             style="fill:none;stroke-width:0.71493858" />
          <g
             transform="matrix(1.0845898,0,0,1.0904198,-74.182753,45.51704)"
             id="ic_x5F_74_Elektromotor"
             style="fill:none;stroke-width:0.44085887">
            <g
               id="group1-0"
               style="fill:none;stroke-width:0.44085887">
              <g
                 transform="matrix(0.90928347,0,0,0.90442193,70.028729,-41.089626)"
                 id="ic_x5F_26_Gasturbine"
                 style="fill:none;stroke-width:0.29977489">
                <g
                   transform="translate(24.0628,17.1051)"
                   id="group1-3"
                   style="fill:none;stroke-width:0.29977489">
                  <path
                     id="shape3"
                     transform="matrix(0.67997925,0,0,0.67997925,-91.132991,-19.487976)"
                     d="M 249.70117 29.576172 L 241.26172 113.79102 L 148.79492 80.671875 L 141.09961 92.398438 L 210.07812 140.53125 L 134.84766 205.23438 L 141.09961 217.87695 L 217.77148 181.58398 L 235.56836 278.94922 L 249.48828 279.78516 L 257.90039 195.80664 L 350.4375 228.95117 L 358.13672 217.22266 L 289.48242 169.31445 L 364.49414 104.80664 L 358.23828 92.167969 L 281.54297 128.46875 L 263.62109 30.417969 L 249.70117 29.576172 z M 249.57031 142.71484 C 256.04683 142.71484 261.29688 147.96486 261.29688 154.44141 C 261.29688 160.91793 256.04683 166.16797 249.57031 166.16797 C 243.09376 166.16797 237.84375 160.91793 237.84375 154.44141 C 237.84375 147.96486 243.09376 142.71484 249.57031 142.71484 z "
                     style="fill:#fffffb;stroke-width:0.44085887;fill-opacity:1" />
                </g>
                <g
                   id="group2"
                   style="fill:none;stroke-width:0.29977489">
                  <path
                     d="m 102.13,8.00982 c 51.896,0 94.116,42.21978 94.116,94.11618 0,51.895 -42.22,94.114 -94.116,94.114 C 50.2323,196.24 8.00993,154.021 8.00993,102.126 8.00993,50.2306 50.2313,8.00982 102.13,8.00982 M 102.13,0 C 45.7237,0 0,45.723 0,102.126 0,158.529 45.7237,204.25 102.13,204.25 c 56.398,0 102.126,-45.721 102.126,-102.124 C 204.256,45.723 158.528,0 102.13,0 Z"
                     transform="translate(0.625,0.625)"
                     id="shape10"
                     style="fill:#ffffff;stroke-width:0.29977489;fill-opacity:1" />
                </g>
              </g>
              <g
                 transform="matrix(0.90928347,0,0,0.90442193,70.028729,-41.089626)"
                 id="ic_x5F_26_Gasturbine1"
                 style="fill:none;stroke-width:0.29977489">
                <g
                   transform="translate(24.0628,17.1051)"
                   id="group4"
                   style="fill:none;stroke-width:0.29977489">
                  <path
                     id="shape13"
                     transform="matrix(0.67997925,0,0,0.67997925,-91.132991,-19.487976)"
                     d="M 249.70117 29.576172 L 241.26172 113.79102 L 148.79492 80.671875 L 141.09961 92.398438 L 210.07812 140.53125 L 134.84766 205.23438 L 141.09961 217.87695 L 217.77148 181.58398 L 235.56836 278.94922 L 249.48828 279.78516 L 257.90039 195.80664 L 350.4375 228.95117 L 358.13672 217.22266 L 289.48242 169.31445 L 364.49414 104.80664 L 358.23828 92.167969 L 281.54297 128.46875 L 263.62109 30.417969 L 249.70117 29.576172 z M 249.57031 142.71484 C 256.04683 142.71484 261.29688 147.96486 261.29688 154.44141 C 261.29688 160.91793 256.04683 166.16797 249.57031 166.16797 C 243.09376 166.16797 237.84375 160.91793 237.84375 154.44141 C 237.84375 147.96486 243.09376 142.71484 249.57031 142.71484 z "
                     style="fill:#002e4f;stroke-width:0.44085887;fill-opacity:0" />
                </g>
                <g
                   id="group5"
                   style="fill:none;stroke-width:0.29977489">
                  <path
                     d="m 102.13,8.00982 c 51.896,0 94.116,42.21978 94.116,94.11618 0,51.895 -42.22,94.114 -94.116,94.114 C 50.2323,196.24 8.00993,154.021 8.00993,102.126 8.00993,50.2306 50.2313,8.00982 102.13,8.00982 M 102.13,0 C 45.7237,0 0,45.723 0,102.126 0,158.529 45.7237,204.25 102.13,204.25 c 56.398,0 102.126,-45.721 102.126,-102.124 C 204.256,45.723 158.528,0 102.13,0 Z"
                     transform="translate(0.625,0.625)"
                     id="shape20"
                     style="fill:#002e4f;stroke-width:0.29977489;fill-opacity:0;stroke:#002e4f;stroke-opacity:0" />
                </g>
                <path
                   d="m 101.0251,337.04592 c -12.5961,-5.3424 -31.1921,-16.6201 -31.1921,-43.9262 0,-34.5676 44.9867,-57.5758 44.9867,-57.5758 0,0 -4.8717,23.1197 6.5228,34.3974 11.3985,11.2777 19.2646,26.7399 19.2646,35.6443 0,25.5686 -26.3897,31.4593 -26.3897,31.4593 0,0 8.027,-10.3707 6.2111,-20.4563 -1.9718,-10.9802 -15.6257,-22.2818 -15.6257,-22.2818 0,0 -13.4206,12.8381 -12.2221,22.9277 1.1976,10.0915 8.4444,19.8114 8.4444,19.8114 z"
                   stroke-miterlimit="2.00000000000"
                   id="shape21"
                   style="fill:#ffffff;fill-opacity:1;stroke:none;stroke-width:0.93830335;stroke-linecap:butt;stroke-linejoin:miter;stroke-miterlimit:2;stroke-opacity:1" />
              </g>
            </g>
          </g>
        </g>
      </g>
    </g>
  </g>
</svg>
