<?xml version="1.0" encoding="UTF-8" standalone="no"?>
<svg
   xmlns:dc="http://purl.org/dc/elements/1.1/"
   xmlns:cc="http://creativecommons.org/ns#"
   xmlns:rdf="http://www.w3.org/1999/02/22-rdf-syntax-ns#"
   xmlns:svg="http://www.w3.org/2000/svg"
   xmlns="http://www.w3.org/2000/svg"
   xmlns:sodipodi="http://sodipodi.sourceforge.net/DTD/sodipodi-0.dtd"
   xmlns:inkscape="http://www.inkscape.org/namespaces/inkscape"
   id="svg1054"
   version="1.1"
   viewBox="0 0 132.29166 132.29167"
   height="500"
   width="500"
   sodipodi:docname="Komponente_Dampfturbine_b.svg"
   inkscape:version="0.92.3 (2405546, 2018-03-11)">
  <sodipodi:namedview
     pagecolor="#ffffff"
     bordercolor="#666666"
     borderopacity="1"
     objecttolerance="10"
     gridtolerance="10"
     guidetolerance="10"
     inkscape:pageopacity="0"
     inkscape:pageshadow="2"
     inkscape:window-width="1920"
     inkscape:window-height="1031"
     id="namedview18"
     showgrid="false"
     inkscape:zoom="0.944"
     inkscape:cx="10.59322"
     inkscape:cy="250"
     inkscape:window-x="0"
     inkscape:window-y="25"
     inkscape:window-maximized="1"
     inkscape:current-layer="ic_x5F_25_Dampfturbine" />
  <defs
     id="defs1048" />
  <metadata
     id="metadata1051">
    <rdf:RDF>
      <cc:Work
         rdf:about="">
        <dc:format>image/svg+xml</dc:format>
        <dc:type
           rdf:resource="http://purl.org/dc/dcmitype/StillImage" />
        <dc:title></dc:title>
      </cc:Work>
    </rdf:RDF>
  </metadata>
  <g
     transform="translate(0,-164.70832)"
     id="layer1">
    <g
       transform="matrix(0.24817282,0,0,0.24817282,76.226291,191.14807)"
       id="ic_x5F_108_Wärme"
       style="fill:none;stroke-width:1.06612539">
      <g
         id="group1"
         style="fill:none;stroke-width:1.06612539">
        <g
           style="fill:none;stroke-width:0.71493858"
           id="ic_x5F_25_Dampfturbine"
           transform="matrix(1.5898194,0,0,1.5898194,-204.80557,-103.9337)">
          <g
             style="fill:none;stroke-width:0.71493858"
             id="path6_8_"
             transform="translate(37.8325,228.549)">
            <path
               style="fill:none;stroke:#000000;stroke-width:6.70595217;stroke-linecap:round;stroke-linejoin:round;stroke-opacity:1"
               inkscape:connector-curvature="0"
               id="shape3"
               transform="translate(10.8295,9.62676)"
               d="M 0,22.8713 C 0.32215,21.1382 0.696485,19.401 1.12301,17.6598 2.47885,12.0754 7.01503,9.47518 12.4153,11.174 c 1.687,0.5253 3.3399,1.096 4.9547,1.7099 v 0 c 5.1674,1.961 8.8496,0.6402 11.5653,-4.15985 0.846,-1.50023 1.7432,-2.99138 2.6916,-4.46842 3.0328,-4.74166 8.0336,-5.60772 12.4544,-2.16062 1.3819,1.07174 2.7177,2.17372 4.0083,3.30192 2.0463,1.78556 4.0465,2.70606 6.0616,2.70707 2.0162,0 4.0154,-0.9195 6.0617,-2.70505 1.2896,-1.1282 2.6263,-2.22917 4.0093,-3.30091 4.4208,-3.44509 9.4246,-2.577012 12.4544,2.16565 0.9374,1.47402 1.8235,2.96215 2.6585,4.45936 1.3448,2.37535 2.9395,3.92495 4.8624,4.61555 1.9238,0.6916 4.1438,0.5152 6.7029,-0.4557 1.6148,-0.6139 3.2676,-1.1856 4.9547,-1.7099 5.4029,-1.69782 9.9379,0.9024 11.2939,6.4868 0.427,1.7412 0.801,3.4774 1.122,5.2105" />
          </g>
          <g
             style="fill:none;stroke-width:0.71493858"
             id="group1-4"
             transform="translate(60.0881,253.002)">
            <path
               style="fill:none;stroke:#000000;stroke-width:3.35297608;stroke-linecap:round;stroke-linejoin:round;stroke-opacity:1"
               inkscape:connector-curvature="0"
               id="shape4"
               transform="translate(29.3139,5.40136)"
               d="M 0,0 12.7981,71.5034 25.4036,1.06262" />
            <path
               style="fill:none;stroke:#000000;stroke-width:3.35297608;stroke-linecap:round;stroke-linejoin:round;stroke-opacity:1"
               inkscape:connector-curvature="0"
               id="shape5"
               transform="translate(5.9149,14.9454)"
               d="M 0,0 36.0189,62.412 71.5034,0.927347" />
          </g>
          <g
             style="fill:none;stroke-width:0.71493858"
             id="group2"
             transform="translate(24.0628,17.1051)">
            <path
               style="fill:#000000;fill-opacity:1;stroke-width:1.06612539"
               d="M 249.17578 28.880859 L 240.62109 114.27148 L 146.85742 80.6875 L 139.05469 92.578125 L 208.99805 141.38672 L 132.71484 206.99414 L 139.05469 219.81055 L 216.79883 183.01172 L 234.8457 281.74219 L 248.95898 282.5918 L 257.49023 197.43359 L 351.32227 231.04102 L 359.12891 219.15039 L 289.51367 170.57227 L 365.57422 105.16211 L 359.23242 92.347656 L 281.46289 129.1543 L 263.29102 29.732422 L 249.17578 28.880859 z M 249.04297 143.59961 C 255.61012 143.59961 260.93359 148.92305 260.93359 155.49023 C 260.93359 162.05739 255.61012 167.38086 249.04297 167.38086 C 242.47579 167.38086 237.15234 162.05739 237.15234 155.49023 C 237.15234 148.92305 242.47579 143.59961 249.04297 143.59961 z "
               transform="matrix(0.67059525,0,0,0.67059525,-88.437702,-18.742993)"
               id="shape6" />
          </g>
          <g
             style="fill:none;stroke-width:0.71493858"
             id="group3">
            <path
               style="fill:#000006;stroke-width:0.71493858;fill-opacity:1"
               inkscape:connector-curvature="0"
               id="shape13"
               transform="translate(0.625,0.625)"
               d="m 102.13,8.00982 c 51.896,0 94.116,42.21978 94.116,94.11618 0,51.895 -42.22,94.114 -94.116,94.114 C 50.2323,196.24 8.00993,154.021 8.00993,102.126 8.00993,50.2296 50.2313,8.00982 102.13,8.00982 M 102.13,0 C 45.7237,0 0,45.723 0,102.126 0,158.529 45.7237,204.25 102.13,204.25 c 56.398,0 102.126,-45.721 102.126,-102.124 C 204.256,45.723 158.528,0 102.13,0 Z" />
          </g>
        </g>
      </g>
    </g>
  </g>
</svg>
