<?xml version="1.0" encoding="UTF-8" standalone="no"?>
<svg
   xmlns:dc="http://purl.org/dc/elements/1.1/"
   xmlns:cc="http://creativecommons.org/ns#"
   xmlns:rdf="http://www.w3.org/1999/02/22-rdf-syntax-ns#"
   xmlns:svg="http://www.w3.org/2000/svg"
   xmlns="http://www.w3.org/2000/svg"
   width="500"
   height="500"
   viewBox="0 0 132.29166 132.29167"
   version="1.1"
   id="svg1054">
  <defs
     id="defs1048" />
  <metadata
     id="metadata1051">
    <rdf:RDF>
      <cc:Work
         rdf:about="">
        <dc:format>image/svg+xml</dc:format>
        <dc:type
           rdf:resource="http://purl.org/dc/dcmitype/StillImage" />
        <dc:title></dc:title>
      </cc:Work>
    </rdf:RDF>
  </metadata>
  <g
     id="layer1"
     transform="translate(0,-164.70832)">
    <g
       style="fill:none;stroke-width:1.06612539"
       id="ic_x5F_108_Wärme"
       transform="matrix(0.24817282,0,0,0.24817282,76.226291,191.14807)">
      <g
         style="fill:none;stroke-width:1.06612539"
         id="group1">
        <g
           transform="matrix(1.5898194,0,0,1.5898194,-204.80557,-103.9337)"
           id="ic_x5F_25_Dampfturbine"
           style="fill:none;stroke-width:0.71493858">
          <g
             id="group3"
             style="fill:none;stroke-width:0.71493858" />
          <g
             transform="matrix(1.0845898,0,0,1.0904198,-74.182753,45.51704)"
             id="ic_x5F_74_Elektromotor"
             style="fill:none;stroke-width:0.44085887">
            <g
               id="group1-0"
               style="fill:none;stroke-width:0.44085887">
              <g
                 transform="matrix(0.90928347,0,0,0.90442193,70.028729,-41.089626)"
                 id="ic_x5F_26_Gasturbine"
                 style="fill:none;stroke-width:0.29977489">
                <g
                   transform="translate(24.0628,17.1051)"
                   id="group1-3"
                   style="fill:none;stroke-width:0.29977489">
                  <g
                     transform="matrix(1.0904321,0,0,1.0904321,-90.155558,40.032633)"
                     id="ic_x5F_27_Gas-_Dampfturbine"
                     style="fill:none;stroke-width:0.18693571">
                    <g
                       transform="translate(15.4219,10.5281)"
                       id="group1-9"
                       style="fill:none;stroke-width:0.18693571">
                      <path
                         id="shape3"
                         transform="matrix(0.62358697,0,0,0.62358697,-16.318272,-65.112525)"
                         d="M 115.08594 105.41602 L 108.42188 169.49414 L 37.765625 144.44727 L 31.839844 153.38477 L 84.917969 190.04297 L 27.064453 239.29297 L 31.861328 248.89648 L 90.455078 221.44336 L 104.44727 295.18164 L 115.40039 295.81445 L 121.97461 232.60547 L 192.36523 257.5625 L 198.29297 248.625 L 145.23047 211.97266 L 202.96875 162.82617 L 198.16797 153.23047 L 140.14844 180.41016 L 126.04297 106.05469 L 115.08594 105.41602 z M 114.69922 191.83984 C 119.6465 191.83984 123.65625 195.84959 123.65625 200.79688 C 123.65625 205.74416 119.6465 209.75586 114.69922 209.75586 C 109.75194 209.75586 105.74023 205.74416 105.74023 200.79688 C 105.74023 195.84959 109.75194 191.83984 114.69922 191.83984 z "
                         style="fill:#ffffff;stroke-width:0.29977489;fill-opacity:1" />
                    </g>
                    <g
                       transform="translate(0,0.002)"
                       id="group2"
                       style="fill:none;stroke-width:0.18693571">
                      <path
                         d="m 70,4.99993 c 35.841,0 65,29.15757 65,64.99807 0,35.84 -29.159,64.998 -65,64.998 C 34.159,134.996 5,105.837 5,69.998 5,34.1585 34.159,4.99993 70,4.99993 M 70,0 C 31.339,0 0,31.3386 0,69.998 c 0,38.66 31.339,69.998 70,69.998 38.656,0 70,-31.338 70,-69.998 C 140,31.3386 108.657,0 70,0 Z"
                         transform="translate(0.625,0.625)"
                         id="shape10"
                         style="fill:#ffffff;stroke-width:0.18693571;fill-opacity:1" />
                    </g>
                    <g
                       transform="translate(185.42,10.5261)"
                       id="group3-1"
                       style="fill:none;stroke-width:0.18693571">
                      <path
                         id="shape11"
                         transform="matrix(0.62358697,0,0,0.62358697,-186.31637,-65.110525)"
                         d="M 387.70703 105.41406 L 381.04102 169.49219 L 310.38477 144.44336 L 304.45703 153.38086 L 357.5332 190.04297 L 299.67773 239.28906 L 304.48047 248.89258 L 363.07227 221.44141 L 377.06641 295.17969 L 388.01953 295.81445 L 394.59375 232.60352 L 464.98633 257.56055 L 470.91211 248.62109 L 417.84766 211.9707 L 475.57812 162.82617 L 470.7832 153.22656 L 412.76562 180.40625 L 398.6582 106.05078 L 387.70703 105.41406 z M 387.25586 191.83594 C 392.16396 191.83594 396.14844 195.81795 396.14844 200.73242 C 396.14844 205.64372 392.16396 209.62695 387.25586 209.62695 C 382.33978 209.62695 378.35742 205.64531 378.35742 200.73242 C 378.35742 195.81795 382.33978 191.83594 387.25586 191.83594 z "
                         style="fill:#ffffff;stroke-width:0.29977489;fill-opacity:1" />
                    </g>
                    <g
                       transform="translate(170.001)"
                       id="group4"
                       style="fill:none;stroke-width:0.18693571">
                      <path
                         d="m 70.001,4.99993 c 35.841,0 64.999,29.15757 64.999,64.99807 0,35.84 -29.158,64.998 -64.999,64.998 C 34.159,134.996 5,105.837 5,69.998 5,34.1585 34.159,4.99993 70.001,4.99993 M 70.001,0 C 31.34,0 0,31.3386 0,69.998 0,108.657 31.34,139.996 70.001,139.996 108.655,139.996 140,108.656 140,69.998 140,31.3396 108.655,0 70.001,0 Z"
                         transform="translate(0.625,0.625)"
                         id="shape18"
                         style="fill:#ffffff;stroke-width:0.18693571;fill-opacity:1" />
                    </g>
                    <path
                       transform="translate(50.094,157.873)"
                       d="M 18.0126,59.0042 C 10.7383,55.8993 0,49.3433 0,33.4707 0,13.3746 25.9788,0 25.9788,0 c 0,0 -2.813,13.4401 3.7666,19.996 6.5815,6.5559 11.1255,15.5443 11.1255,20.7208 0,14.8631 -15.2405,18.2874 -15.2405,18.2874 0,0 4.6365,-6.0284 3.5874,-11.8901 -1.1387,-6.3844 -9.0232,-12.9542 -9.0232,-12.9542 0,0 -7.7492,7.4633 -7.0574,13.329 0.6908,5.8657 4.8754,11.5153 4.8754,11.5153 z"
                       stroke-miterlimit="2.00000000000"
                       id="shape19"
                       style="fill:#fffffa;stroke:none;stroke-width:0.50192517;stroke-linecap:butt;stroke-linejoin:miter;stroke-miterlimit:2;fill-opacity:1" />
                    <g
                       transform="translate(203.705,156.246)"
                       id="path6_5_"
                       style="fill:none;stroke-width:0.18693571">
                      <path
                         d="M 0,12.7366 C 0.189293,11.7712 0.407786,10.803 0.657493,9.83286 1.44991,6.72417 4.10505,5.27666 7.26665,6.22178 8.2534,6.51436 9.22,6.83293 10.1655,7.1746 v 0 c 3.0246,1.09141 5.1804,0.3561 6.7692,-2.31564 0.4944,-0.83636 1.02,-1.66599 1.5738,-2.48887 1.7761,-2.64094 4.7041,-3.123124 7.2908,-1.20305 0.8085,0.59671 1.5909,1.21075 2.345,1.83922 1.1962,0.9942 2.3672,1.50622 3.5483,1.50622 1.179,0 2.349,-0.51105 3.5452,-1.50526 0.7551,-0.62751 1.5375,-1.24155 2.346,-1.83826 2.5877,-1.919107 5.5167,-1.434998 7.2898,1.20594 0.5488,0.82096 1.0683,1.64962 1.5567,2.48406 0.7853,1.3224 1.7197,2.18571 2.8444,2.56972 1.1267,0.38498 2.4256,0.28681 3.9228,-0.25408 0.9445,-0.34167 1.9121,-0.6612 2.8998,-0.95282 3.1616,-0.94512 5.8168,0.50143 6.6102,3.61205 0.2487,0.97017 0.4672,1.93737 0.6555,2.90277"
                         transform="translate(5.43432,4.82286)"
                         id="shape20"
                         style="fill:none;stroke:#ffffff;stroke-width:3.1179347;stroke-linecap:round;stroke-linejoin:round;stroke-opacity:1" />
                    </g>
                    <path
                       d="M 0,0 7.25788,41.5059 14.406,0.617647"
                       transform="translate(232.904,172.867)"
                       id="shape21"
                       style="fill:none;stroke:#ffffff;stroke-width:1.55896735;stroke-linecap:round;stroke-linejoin:round;stroke-opacity:1" />
                    <path
                       d="M 0,0 20.9081,36.6129 41.5059,0.543701"
                       transform="translate(219.255,178.436)"
                       id="shape22"
                       style="fill:none;stroke:#ffffff;stroke-width:1.55896735;stroke-linecap:round;stroke-linejoin:round;stroke-opacity:1" />
                  </g>
                </g>
              </g>
            </g>
          </g>
        </g>
      </g>
    </g>
  </g>
</svg>
