<?xml version="1.0" encoding="UTF-8" standalone="no"?>
<svg
   xmlns:dc="http://purl.org/dc/elements/1.1/"
   xmlns:cc="http://creativecommons.org/ns#"
   xmlns:rdf="http://www.w3.org/1999/02/22-rdf-syntax-ns#"
   xmlns:svg="http://www.w3.org/2000/svg"
   xmlns="http://www.w3.org/2000/svg"
   width="500"
   height="500"
   viewBox="0 0 132.29166 132.29167"
   version="1.1"
   id="svg1054">
  <defs
     id="defs1048" />
  <metadata
     id="metadata1051">
    <rdf:RDF>
      <cc:Work
         rdf:about="">
        <dc:format>image/svg+xml</dc:format>
        <dc:type
           rdf:resource="http://purl.org/dc/dcmitype/StillImage" />
        <dc:title></dc:title>
      </cc:Work>
    </rdf:RDF>
  </metadata>
  <g
     id="layer1"
     transform="translate(0,-164.70832)">
    <g
       style="fill:none;stroke-width:1.06612539"
       id="ic_x5F_108_Wärme"
       transform="matrix(0.24817282,0,0,0.24817282,76.226291,191.14807)">
      <g
         style="fill:none;stroke-width:1.06612539"
         id="group1">
        <g
           transform="matrix(1.5898194,0,0,1.5898194,-204.80557,-103.9337)"
           id="ic_x5F_25_Dampfturbine"
           style="fill:none;stroke-width:0.71493858">
          <g
             id="group3"
             style="fill:none;stroke-width:0.71493858" />
          <g
             transform="matrix(1.0845898,0,0,1.0904198,-74.182753,45.51704)"
             id="ic_x5F_74_Elektromotor"
             style="fill:none;stroke-width:0.44085887">
            <g
               id="group1-0"
               style="fill:none;stroke-width:0.44085887">
              <g
                 transform="matrix(0.90928347,0,0,0.90442193,70.028729,-41.089626)"
                 id="ic_x5F_26_Gasturbine"
                 style="fill:none;stroke-width:0.29977489">
                <g
                   transform="translate(24.0628,17.1051)"
                   id="group1-3"
                   style="fill:none;stroke-width:0.29977489">
                  <g
                     transform="matrix(1.0904321,0,0,1.0904321,-90.155558,40.032633)"
                     id="ic_x5F_27_Gas-_Dampfturbine"
                     style="fill:none;stroke-width:0.18693571">
                    <g
                       transform="matrix(0.93934867,0,0,0.93934867,-2.025386,23.641553)"
                       id="group1-9"
                       style="fill:none;stroke-width:0.12409734">
                      <g
                         transform="translate(2.1581419,-1.8450614)"
                         id="ic_x5F_124_Thermisches_Kraftwerk__x28_technologie-neutral_x29_"
                         style="fill:none;stroke-width:0.12409734">
                        <g
                           transform="translate(-26.379685,83.40316)"
                           id="g1875"
                           style="fill:none;stroke-width:0.12409734" />
                        <g
                           style="fill:none;stroke-width:0.12409734"
                           id="g1881"
                           transform="translate(167.05432,267.38923)" />
                        <g
                           style="stroke-width:0.07765769"
                           id="g3012"
                           transform="matrix(1.0608358,0,0,1.0608358,-106.32153,-186.59814)">
                          <g
                             transform="matrix(1.0021384,0,0,1.0021384,99.810246,99.622731)"
                             id="ic_x5F_33_Biomasse"
                             style="fill:none;stroke-width:0.04849297">
                            <g
                               transform="translate(-5.3749973,2.5113704e-6)"
                               id="ic_x5F_30_Erdgas"
                               style="fill:none;stroke-width:0.0302812">
                              <g
                                 transform="translate(5.375)"
                                 id="group1-00"
                                 style="fill:none;stroke-width:0.0302812" />
                              <g
                                 transform="matrix(1.0052037,0,0,1.0052037,4.9042607,-0.72662602)"
                                 id="ic_x5F_01_Sonne"
                                 style="fill:none;stroke-width:0.01881106">
                                <g
                                   id="group1-4"
                                   style="fill:none;stroke-width:0.01881106">
                                <g
                                   transform="translate(77.089,77.089)"
                                   id="group2"
                                   style="fill:none;stroke-width:0.01881106">
                                <path
                                   d="m 133.528,66.7647 c 0,9.3911 -1.732,18.1694 -5.2,26.3399 -3.468,8.1694 -8.2,15.3064 -14.197,21.4094 -5.997,6.104 -13.071,10.893 -21.2232,14.368 -8.1522,3.475 -16.819,5.213 -26.0024,5.213 -9.3722,0 -18.0869,-1.738 -26.1433,-5.213 C 32.7018,125.407 25.6267,120.618 19.5378,114.514 13.4448,108.411 8.6658,101.274 5.20068,93.1046 1.73156,84.9351 0,76.1558 0,66.7647 0,57.5629 1.73156,48.9238 5.20068,40.8475 8.6658,32.7721 13.4438,25.682 19.5378,19.5791 25.6267,13.4753 32.7008,8.68616 40.7621,5.21169 48.8185,1.73723 57.5332,0 66.9054,0 c 9.1834,0 17.8502,1.73723 26.0024,5.21169 8.1522,3.47447 15.2262,8.26361 21.2232,14.36741 5.997,6.1029 10.729,13.193 14.197,21.2684 3.468,8.0753 5.2,16.7144 5.2,25.9172 z m -19.114,0 c 0,-6.3852 -1.266,-12.489 -3.796,-18.3105 -2.529,-5.8224 -5.95,-10.893 -10.261,-15.2125 -4.3098,-4.3186 -9.3706,-7.747 -15.1787,-10.2822 -5.8102,-2.5353 -11.9012,-3.8029 -18.2729,-3.8029 -6.5615,0 -12.6994,1.2676 -18.4127,3.8029 -5.7182,2.5352 -10.7321,5.9626 -15.0395,10.2822 -4.3134,4.3195 -7.7306,9.3901 -10.2605,15.2125 -2.5309,5.8215 -3.7948,11.9253 -3.7948,18.3105 0,6.5725 1.2649,12.7704 3.7948,18.5919 2.5299,5.8225 5.9471,10.893 10.2605,15.2114 4.3074,4.32 9.3213,7.748 15.0395,10.283 5.7133,2.536 11.8512,3.804 18.4127,3.804 6.3717,0 12.4627,-1.268 18.2729,-3.804 5.8081,-2.534 10.8689,-5.962 15.1787,-10.283 4.31,-4.3184 7.731,-9.3889 10.261,-15.2114 2.53,-5.8215 3.796,-12.0194 3.796,-18.5919 z"
                                   transform="translate(0.625,0.625)"
                                   id="shape1"
                                   style="fill:#000000;stroke-width:0.01881106" />
                                </g>
                                <g
                                   id="group3-6"
                                   style="fill:none;stroke-width:0.01881106">
                                <g
                                   transform="translate(17.3782,17.6416)"
                                   id="group4"
                                   style="fill:none;stroke-width:0.01881106">
                                <path
                                   d="m 81.7158,203.656 c 2.7572,1.598 4.585,3.954 5.4844,7.083 0.9054,3.128 0.5564,6.078 -1.0311,8.84 l -16.2717,28.317 c -1.5925,2.763 -3.9339,4.501 -7.0351,5.191 -3.1002,0.7 -6.0248,0.249 -8.781,-1.348 -2.7522,-1.596 -4.5242,-3.872 -5.3119,-6.826 -0.7858,-2.944 -0.3859,-5.809 1.2045,-8.574 l 16.2718,-28.315 c 1.5905,-2.762 3.879,-4.584 6.8615,-5.459 2.9886,-0.873 5.8574,-0.507 8.6086,1.091 z M 45.4019,66.7282 c 2.7562,1.6019 4.5022,3.913 5.2411,6.9474 0.7439,3.0355 0.3161,5.9337 -1.2743,8.7006 -1.5895,2.767 -3.874,4.5852 -6.8615,5.4588 -2.9836,0.8736 -5.8524,0.5079 -8.6086,-1.09 L 5.23102,70.1153 C 2.47883,68.5184 0.80957,66.2494 0.23221,63.3131 -0.347145,60.3728 0.157422,57.5207 1.74791,54.7548 3.3374,51.9878 5.54513,50.1225 8.36911,49.1558 11.1911,48.188 13.9822,48.5076 16.7343,50.1004 Z M 197.864,1.54554 c 2.754,1.60187 4.587,3.9651 5.485,7.08869 0.907,3.12857 0.557,6.07387 -1.029,8.84077 l -16.272,28.3127 c -1.594,2.771 -3.955,4.5422 -7.107,5.3175 -3.142,0.7794 -6.097,0.3717 -8.852,-1.2262 -2.753,-1.5978 -4.498,-3.913 -5.241,-6.9484 -0.738,-3.0294 -0.318,-5.9276 1.271,-8.6996 L 182.391,5.91937 c 1.589,-2.76695 3.881,-4.58521 6.863,-5.458767 2.989,-0.869556 5.854,-0.5079089 8.61,1.084937 z"
                                   transform="translate(0.618963,0.614597)"
                                   id="shape2"
                                   style="fill:#000000;stroke-width:0.01881106" />
                                </g>
                                <g
                                   transform="translate(17.447,17.6569)"
                                   id="group5"
                                   style="fill:none;stroke-width:0.01881106">
                                <path
                                   d="m 49.6883,170.06 c 1.5988,2.761 2.0075,5.711 1.2281,8.857 -0.7773,3.145 -2.5525,5.511 -5.3185,7.1 l -28.3136,16.27 c -2.767,1.59 -5.6721,1.911 -8.71659,0.958 -3.04845,-0.945 -5.3666,-2.797 -6.96646,-5.553 -1.59485296,-2.75 -2.000579,-5.592 -1.20716,-8.539 0.78941,-2.931 2.5676,-5.198 5.33354,-6.788 L 34.0423,166.096 c 2.7649,-1.59 5.6671,-2.01 8.6995,-1.271 3.0345,0.738 5.3506,2.487 6.9465,5.235 z M 86.5552,33.8938 c 1.5969,2.7578 1.9615,5.6242 1.0879,8.6063 -0.8715,2.9881 -2.6948,5.2732 -5.4587,6.8635 -2.77,1.5892 -5.6652,2.015 -8.7006,1.2712 -3.0324,-0.7388 -5.3455,-2.4826 -6.9454,-5.2413 L 49.9086,16.7301 C 48.3138,13.9823 47.9972,11.1906 48.963,8.36608 49.9307,5.54252 51.793,3.34011 54.562,1.74687 57.3269,0.161604 60.18,-0.347874 63.1203,0.231395 66.0595,0.811661 68.3276,2.47968 69.9244,5.22946 Z M 251.793,53.9359 c 1.596,2.7538 2.01,5.704 1.231,8.8496 -0.78,3.1466 -2.556,5.5125 -5.318,7.1018 l -28.317,16.2693 c -2.768,1.5893 -5.712,1.9352 -8.841,1.0329 -3.123,-0.9023 -5.487,-2.7308 -7.084,-5.4836 -1.595,-2.7527 -1.959,-5.6192 -1.09,-8.6062 0.875,-2.9831 2.693,-5.2693 5.458,-6.8635 L 236.15,49.9668 c 2.762,-1.5853 5.664,-2.011 8.7,-1.2712 3.033,0.7428 5.346,2.4866 6.943,5.2403 z"
                                   transform="translate(0.615644,0.619001)"
                                   id="shape3"
                                   style="fill:#000000;stroke-width:0.01881106" />
                                </g>
                                <g
                                   id="group6"
                                   style="fill:none;stroke-width:0.01881106">
                                <path
                                   d="m 55.355,143.723 c 0,3.187 -1.1236,5.953 -3.3717,8.297 -2.2481,2.344 -4.9666,3.517 -8.1495,3.517 H 11.2396 c -3.18693,0 -5.85651,-1.173 -8.00875,-3.517 C 1.07362,149.676 0,146.912 0,143.723 c 0,-3.188 1.07462,-5.858 3.23085,-8.017 2.15224,-2.155 4.82182,-3.234 8.00875,-3.234 h 32.5942 c 3.1829,0 5.9014,1.079 8.1495,3.234 2.2481,2.157 3.3717,4.829 3.3717,8.017 z M 155.386,43.8763 c 0,3.187 -1.124,5.8602 -3.372,8.0165 -2.249,2.1563 -4.968,3.234 -8.149,3.234 -3.187,0 -5.9,-1.0777 -8.148,-3.234 -2.248,-2.1563 -3.372,-4.8285 -3.372,-8.0165 V 10.6877 c 0,-3.18704 1.124,-5.76523 3.372,-7.73462 C 137.964,0.983693 140.678,0 143.865,0 c 3.183,0 5.9,0.983693 8.149,2.95308 2.248,1.96939 3.372,4.54658 3.372,7.73462 z m 0,232.8807 c 0,3.376 -1.124,6.189 -3.372,8.438 -2.249,2.25 -4.968,3.375 -8.149,3.375 -3.187,0 -5.9,-1.125 -8.148,-3.375 -2.248,-2.249 -3.372,-5.062 -3.372,-8.438 v -32.626 c 0,-3.186 1.124,-5.812 3.372,-7.875 2.247,-2.062 4.961,-3.094 8.148,-3.094 3.183,0 5.9,1.032 8.149,3.094 2.248,2.062 3.372,4.688 3.372,7.875 z M 288.01,143.723 c 0,3.187 -1.123,5.953 -3.371,8.297 -2.249,2.344 -4.964,3.517 -8.149,3.517 h -32.594 c -3.184,0 -5.901,-1.173 -8.15,-3.517 -2.247,-2.344 -3.37,-5.108 -3.37,-8.297 0,-3.188 1.123,-5.858 3.37,-8.017 2.249,-2.155 4.966,-3.234 8.15,-3.234 h 32.594 c 3.185,0 5.9,1.079 8.149,3.234 2.248,2.157 3.371,4.829 3.371,8.017 z"
                                   transform="translate(0.625,0.625)"
                                   id="shape4"
                                   style="fill:#000000;stroke-width:0.01881106" />
                                </g>
                                <g
                                   transform="translate(171.576,170.144)"
                                   id="group7"
                                   style="fill:none;stroke-width:0.01881106">
                                <g
                                   transform="translate(0,55.4793)"
                                   id="group8"
                                   style="fill:none;stroke-width:0.01881106">
                                <path
                                   d="m 29.318,65.6834 c -4.3525,0 -8.487,-2.5749 -10.2859,-6.8595 L 0.880265,15.5811 C -1.51489,9.87456 1.14573,3.29488 6.82359,0.886253 12.4994,-1.52438 19.046,1.15211 21.4421,6.86053 L 39.594,50.1035 c 2.3952,5.7064 -0.2654,12.2861 -5.9433,14.6947 -1.4155,0.6004 -2.8865,0.8852 -4.3327,0.8852 z"
                                   transform="translate(0.60015,0.599893)"
                                   id="shape5"
                                   style="fill:#000000;stroke-width:0.01881106" />
                                <g
                                   transform="translate(6.68068,39.881)"
                                   id="group9"
                                   style="fill:none;stroke-width:0.01881106">
                                <path
                                   d="M 0,17.3065 35.9507,44.1718 41.5445,0 Z"
                                   transform="translate(0.374129,0.576941)"
                                   id="shape6"
                                   style="fill:#000000;stroke-width:0.01881106" />
                                </g>
                                </g>
                                <g
                                   transform="translate(53.959)"
                                   id="group10"
                                   style="fill:none;stroke-width:0.01881106">
                                <path
                                   d="m 54.1625,40.2468 c -1.4035,0 -2.8298,-0.2688 -4.2094,-0.8345 L 6.97804,21.7691 C 1.25294,19.4189 -1.50035,12.8276 0.826836,7.04584 3.15502,1.26408 9.68068,-1.51345 15.4058,0.833766 L 58.3808,18.477 c 5.7251,2.3502 8.4784,8.9414 6.1512,14.7232 -1.767,4.3875 -5.9525,7.0466 -10.3695,7.0466 z"
                                   transform="translate(0.601401,0.601028)"
                                   id="shape7"
                                   style="fill:#000000;stroke-width:0.01881106" />
                                <g
                                   transform="translate(40.0522,5.67333)"
                                   id="group11"
                                   style="fill:none;stroke-width:0.01881106">
                                <path
                                   d="M 0,42.0014 44.0154,35.7886 16.7339,0 Z"
                                   transform="translate(0.580615,0.378901)"
                                   id="shape8"
                                   style="fill:#000000;stroke-width:0.01881106" />
                                </g>
                                </g>
                                <g
                                   transform="translate(32.1321,34.0903)"
                                   id="group12"
                                   style="fill:none;stroke-width:0.01881106">
                                <path
                                   d="m 73.0267,83.1277 c -2.8749,0 -5.7488,-1.081 -7.9534,-3.2479 L 3.35044,19.1985 C -1.08586,14.8368 -1.12098,7.73038 3.27117,3.32683 7.66632,-1.07971 14.823,-1.11159 19.2573,3.24813 L 80.9801,63.9294 c 4.4363,4.3617 4.4714,11.4681 0.0793,15.8717 -2.2106,2.2167 -5.1217,3.3266 -8.0327,3.3266 z"
                                   transform="translate(0.578842,0.579635)"
                                   id="shape9"
                                   style="fill:#000000;stroke-width:0.01881106" />
                                <g
                                   transform="translate(52.5202,51.6346)"
                                   id="group13"
                                   style="fill:none;stroke-width:0.01881106">
                                <path
                                   d="M 0,31.6293 43.16,42.9378 31.4001,0 Z"
                                   transform="translate(0.443546,0.440332)"
                                   id="shape10"
                                   style="fill:#000000;stroke-width:0.01881106" />
                                </g>
                                </g>
                                </g>
                                </g>
                                </g>
                              </g>
                            </g>
                          </g>
                        </g>
                      </g>
                    </g>
                  </g>
                </g>
              </g>
            </g>
          </g>
        </g>
      </g>
    </g>
  </g>
</svg>
