<?xml version="1.0" encoding="UTF-8" standalone="no"?>
<svg
   xmlns:dc="http://purl.org/dc/elements/1.1/"
   xmlns:cc="http://creativecommons.org/ns#"
   xmlns:rdf="http://www.w3.org/1999/02/22-rdf-syntax-ns#"
   xmlns:svg="http://www.w3.org/2000/svg"
   xmlns="http://www.w3.org/2000/svg"
   width="500"
   height="500"
   viewBox="0 0 132.29166 132.29167"
   version="1.1"
   id="svg1054">
  <defs
     id="defs1048" />
  <metadata
     id="metadata1051">
    <rdf:RDF>
      <cc:Work
         rdf:about="">
        <dc:format>image/svg+xml</dc:format>
        <dc:type
           rdf:resource="http://purl.org/dc/dcmitype/StillImage" />
        <dc:title></dc:title>
      </cc:Work>
    </rdf:RDF>
  </metadata>
  <g
     id="layer1"
     transform="translate(0,-164.70832)">
    <g
       style="fill:none;stroke-width:1.06612539"
       id="ic_x5F_108_Wärme"
       transform="matrix(0.24817282,0,0,0.24817282,76.226291,191.14807)">
      <g
         style="fill:none;stroke-width:1.06612539"
         id="group1">
        <g
           transform="matrix(1.5898194,0,0,1.5898194,-204.80557,-103.9337)"
           id="ic_x5F_25_Dampfturbine"
           style="fill:none;stroke-width:0.71493858">
          <g
             id="group3"
             style="fill:none;stroke-width:0.71493858" />
          <g
             transform="matrix(1.0845898,0,0,1.0904198,-74.182753,45.51704)"
             id="ic_x5F_74_Elektromotor"
             style="fill:none;stroke-width:0.44085887">
            <g
               id="group1-0"
               style="fill:none;stroke-width:0.44085887">
              <g
                 transform="matrix(0.90928347,0,0,0.90442193,70.028729,-41.089626)"
                 id="ic_x5F_26_Gasturbine"
                 style="fill:none;stroke-width:0.29977489">
                <g
                   transform="translate(24.0628,17.1051)"
                   id="group1-3"
                   style="fill:none;stroke-width:0.29977489">
                  <g
                     transform="matrix(1.0904321,0,0,1.0904321,-90.155558,40.032633)"
                     id="ic_x5F_27_Gas-_Dampfturbine"
                     style="fill:none;stroke-width:0.18693571">
                    <g
                       transform="matrix(0.93934867,0,0,0.93934867,-2.025386,23.641553)"
                       id="group1-9"
                       style="fill:none;stroke-width:0.12409734">
                      <g
                         transform="translate(2.1581419,-1.8450614)"
                         id="ic_x5F_124_Thermisches_Kraftwerk__x28_technologie-neutral_x29_"
                         style="fill:none;stroke-width:0.12409734">
                        <g
                           transform="translate(-26.379685,83.40316)"
                           id="g1875"
                           style="fill:none;stroke-width:0.12409734" />
                        <g
                           style="fill:none;stroke-width:0.12409734"
                           id="g1881"
                           transform="translate(167.05432,267.38923)" />
                        <g
                           style="stroke-width:0.07765769"
                           id="g3012"
                           transform="matrix(1.0608358,0,0,1.0608358,-106.32153,-186.59814)">
                          <g
                             transform="matrix(1.0021384,0,0,1.0021384,99.810246,99.622731)"
                             id="ic_x5F_33_Biomasse"
                             style="fill:none;stroke-width:0.04849297">
                            <g
                               transform="translate(-5.3749973,2.5113704e-6)"
                               id="ic_x5F_30_Erdgas"
                               style="fill:none;stroke-width:0.0302812">
                              <g
                                 transform="translate(5.375)"
                                 id="group1-00"
                                 style="fill:none;stroke-width:0.0302812" />
                              <g
                                 transform="matrix(1.0052037,0,0,1.0052037,4.9042607,-0.72662602)"
                                 id="ic_x5F_01_Sonne"
                                 style="fill:none;stroke-width:0.01881106">
                                <g
                                   transform="matrix(0.99707543,0,0,1.0204523,-6.6196151,-6.6668258)"
                                   id="ic_x5F_10_Wind"
                                   style="fill:none;stroke-width:0.01158492">
                                <g
                                   transform="translate(50.3923,16.8112)"
                                   id="group1-2"
                                   style="fill:none;stroke-width:0.01158492">
                                <path
                                   d="m 129.353,43.8853 c 9.911,5.7054 2.32,37.3774 -16.935,70.7447 -19.2876,33.363 -42.9527,55.78 -52.865,50.058 L 0,147.886 C 12.14,154.872 41.1131,127.44 64.7051,86.5999 88.3032,45.7615 97.5876,6.98887 85.4437,0 Z"
                                   transform="translate(0.311725,0.541699)"
                                   id="shape1"
                                   style="fill:#ffffff;stroke-width:0.01158492;fill-opacity:1" />
                                <path
                                   d="M 0,58.0103 C 4.67167,60.7495 15.8204,49.986 24.8978,33.9664 33.9791,17.9499 37.5523,2.74721 32.8806,0 L 50.8811,18.48 C 54.665,20.6961 51.77,33.0068 44.4229,45.9683 37.0748,58.9338 28.0508,67.6472 24.2739,65.4291 Z"
                                   transform="translate(205.636,149.381)"
                                   id="shape2"
                                   style="fill:#ffffff;stroke-width:0.01158492;fill-opacity:1" />
                                <path
                                   d="M 0,95.4625 C 7.84187,99.9805 26.5706,82.2684 41.8353,55.9051 57.074,29.5368 63.0809,4.50801 55.2391,0 l 33.2404,32.1401 c 6.2979,3.621 1.483,23.6912 -10.7528,44.8349 -12.2338,21.1467 -27.2555,35.351 -33.5484,31.734 z"
                                   transform="translate(118.097,85.5667)"
                                   id="shape3"
                                   style="fill:#ffffff;stroke-width:0.01158492;fill-opacity:1" />
                                </g>
                                <g
                                   transform="translate(19.8717)"
                                   id="group2"
                                   style="fill:none;stroke-width:0.01158492">
                                <path
                                   d="M 69.964,88.0764 C 46.3964,129.094 17.4565,156.655 5.32863,149.633 -6.79926,142.616 2.47518,103.672 26.0428,62.6531 49.6164,21.6342 78.5553,-5.92726 90.6802,1.09167 102.811,8.1116 93.5357,47.0565 69.964,88.0764 Z"
                                   transform="translate(25.4971,15.0339)"
                                   id="shape4"
                                   style="fill:none;stroke:#fffffd;stroke-width:8.00614166;stroke-linecap:round;stroke-linejoin:round;stroke-opacity:1" />
                                <path
                                   d="M 12.5305,141.825 C 12.5305,137.098 0,41.0823 0,41.0823 L 95.9363,0"
                                   transform="translate(12.9453,15.0339)"
                                   id="shape5"
                                   style="fill:none;stroke:#ffffff;stroke-width:8.00614166;stroke-linecap:round;stroke-linejoin:round;stroke-opacity:1" />
                                <path
                                   d="m 26.7634,0 c 3.806,2.18239 0.8941,14.2909 -6.4962,27.0478 C 12.877,39.8046 3.79905,48.3739 0,46.1915"
                                   transform="translate(260.707,184.496)"
                                   id="shape6"
                                   style="fill:none;stroke:#ffffff;stroke-width:8.00614166;stroke-linecap:round;stroke-linejoin:round;stroke-opacity:1" />
                                <path
                                   d="M 0,0 229.75,67.4736"
                                   transform="translate(30.8323,164.307)"
                                   id="shape7"
                                   style="fill:none;stroke:#ffffff;stroke-width:8.00614166;stroke-linecap:round;stroke-linejoin:round;stroke-opacity:1" />
                                <path
                                   d="M 0,0 171.406,167.996"
                                   transform="translate(116.29,16.1229)"
                                   id="shape8"
                                   style="fill:none;stroke:#fffffd;stroke-width:8.00614166;stroke-linecap:round;stroke-linejoin:round;stroke-opacity:1" />
                                </g>
                                <path
                                   d="M 0,240 V 0 h 13.52"
                                   transform="translate(18,60.5469)"
                                   id="shape9"
                                   style="fill:none;stroke:#ffffff;stroke-width:11.08542538;stroke-linecap:round;stroke-linejoin:round;stroke-opacity:1" />
                                </g>
                              </g>
                            </g>
                          </g>
                        </g>
                      </g>
                    </g>
                  </g>
                </g>
              </g>
            </g>
          </g>
        </g>
      </g>
    </g>
  </g>
</svg>
