<?xml version="1.0" encoding="UTF-8" standalone="no"?>
<svg
   xmlns:dc="http://purl.org/dc/elements/1.1/"
   xmlns:cc="http://creativecommons.org/ns#"
   xmlns:rdf="http://www.w3.org/1999/02/22-rdf-syntax-ns#"
   xmlns:svg="http://www.w3.org/2000/svg"
   xmlns="http://www.w3.org/2000/svg"
   width="500"
   height="500"
   viewBox="0 0 132.29166 132.29167"
   version="1.1"
   id="svg1054">
  <defs
     id="defs1048" />
  <metadata
     id="metadata1051">
    <rdf:RDF>
      <cc:Work
         rdf:about="">
        <dc:format>image/svg+xml</dc:format>
        <dc:type
           rdf:resource="http://purl.org/dc/dcmitype/StillImage" />
        <dc:title></dc:title>
      </cc:Work>
    </rdf:RDF>
  </metadata>
  <g
     id="layer1"
     transform="translate(0,-164.70832)">
    <g
       style="fill:none;stroke-width:1.06612539"
       id="ic_x5F_108_Wärme"
       transform="matrix(0.24817282,0,0,0.24817282,76.226291,191.14807)">
      <g
         style="fill:none;stroke-width:1.06612539"
         id="group1">
        <g
           transform="matrix(1.5898194,0,0,1.5898194,-204.80557,-103.9337)"
           id="ic_x5F_25_Dampfturbine"
           style="fill:none;stroke-width:0.71493858">
          <g
             id="group3"
             style="fill:none;stroke-width:0.71493858" />
          <g
             transform="matrix(1.0845898,0,0,1.0904198,-74.182753,45.51704)"
             id="ic_x5F_74_Elektromotor"
             style="fill:none;stroke-width:0.44085887">
            <g
               id="group1-0"
               style="fill:none;stroke-width:0.44085887">
              <g
                 transform="matrix(0.90928347,0,0,0.90442193,70.028729,-41.089626)"
                 id="ic_x5F_26_Gasturbine"
                 style="fill:none;stroke-width:0.29977489">
                <g
                   transform="translate(24.0628,17.1051)"
                   id="group1-3"
                   style="fill:none;stroke-width:0.29977489">
                  <g
                     transform="matrix(1.0904321,0,0,1.0904321,-90.155558,40.032633)"
                     id="ic_x5F_27_Gas-_Dampfturbine"
                     style="fill:none;stroke-width:0.18693571">
                    <g
                       transform="matrix(0.93934867,0,0,0.93934867,-2.025386,23.641553)"
                       id="group1-9"
                       style="fill:none;stroke-width:0.12409734">
                      <g
                         transform="translate(2.1581419,-1.8450614)"
                         id="ic_x5F_124_Thermisches_Kraftwerk__x28_technologie-neutral_x29_"
                         style="fill:none;stroke-width:0.12409734">
                        <g
                           transform="translate(-26.379685,83.40316)"
                           id="g1875"
                           style="fill:none;stroke-width:0.12409734" />
                        <g
                           style="fill:none;stroke-width:0.12409734"
                           id="g1881"
                           transform="translate(167.05432,267.38923)" />
                        <g
                           style="stroke-width:0.07765769"
                           id="g3012"
                           transform="matrix(1.0608358,0,0,1.0608358,-106.32153,-186.59814)">
                          <g
                             transform="matrix(1.0021384,0,0,1.0021384,99.810246,99.622731)"
                             id="ic_x5F_33_Biomasse"
                             style="fill:none;stroke-width:0.04849297">
                            <g
                               transform="translate(-5.3749973,2.5113704e-6)"
                               id="ic_x5F_30_Erdgas"
                               style="fill:none;stroke-width:0.0302812">
                              <g
                                 transform="translate(5.375)"
                                 id="group1-00"
                                 style="fill:none;stroke-width:0.0302812" />
                              <g
                                 transform="matrix(1.0052037,0,0,1.0052037,4.9042607,-0.72662602)"
                                 id="ic_x5F_01_Sonne"
                                 style="fill:none;stroke-width:0.01881106">
                                <g
                                   transform="matrix(0.97095431,0,0,0.97095431,3.6335023,38.950712)"
                                   id="ic_x5F_112_Regen"
                                   style="fill:none;stroke-width:0.01203524">
                                <g
                                   id="group62"
                                   style="fill:none;stroke-width:0.01203524">
                                <path
                                   d="m 68.0185,82.931 c -10.063,17.428 -32.367,23.4 -49.791,13.341 C 0.800495,86.212 -5.17451,63.908 4.88549,46.485 14.9465,29.058 59.5825,14.227 73.8085,0 c -5.207,19.433 4.269,65.511 -5.79,82.931 z"
                                   transform="translate(118.684,0.442911)"
                                   id="path6525_1_"
                                   style="fill:#000000;stroke-width:0.01203524" />
                                <path
                                   d="M 68.0183,82.932 C 57.9563,100.36 35.6513,106.334 18.2263,96.273 0.801312,86.215 -5.17469,63.909 4.88531,46.486 14.9453,29.059 59.5853,14.228 73.8103,0 c -5.207,19.434 4.265,65.512 -5.792,82.932 z"
                                   transform="translate(0.58966,0.441911)"
                                   id="path6525_3_"
                                   style="fill:#000000;stroke-width:0.01203524" />
                                <path
                                   d="M 68.018,82.928 C 57.955,100.357 35.653,106.329 18.229,96.272 0.799979,86.212 -5.17402,63.907 4.88498,46.486 14.944,29.058 59.584,14.225 73.81,0 68.601,19.431 78.077,65.509 68.018,82.928 Z"
                                   transform="translate(169.526,138.073)"
                                   id="path6525_5_"
                                   style="fill:#000000;stroke-width:0.01203524" />
                                <path
                                   d="M 68.017,82.93 C 57.956,100.359 35.651,106.334 18.226,96.274 0.80101,86.214 -5.17499,63.909 4.88601,46.486 14.946,29.06 59.584,14.227 73.809,0 68.603,19.433 78.076,65.511 68.017,82.93 Z"
                                   transform="translate(51.431,138.071)"
                                   id="path6525_4_"
                                   style="fill:#000000;stroke-width:0.01203524" />
                                <path
                                   d="M 68.0177,82.932 C 57.9577,100.36 35.6517,106.334 18.2287,96.273 0.799677,86.215 -5.17432,63.909 4.88568,46.486 14.9477,29.059 59.5847,14.228 73.8107,0 c -5.207,19.434 4.265,65.511 -5.793,82.932 z"
                                   transform="translate(236.779,0.441911)"
                                   id="path6525_2_"
                                   style="fill:#000000;stroke-width:0.01203524" />
                                </g>
                                </g>
                              </g>
                            </g>
                          </g>
                        </g>
                      </g>
                    </g>
                  </g>
                </g>
              </g>
            </g>
          </g>
        </g>
      </g>
    </g>
  </g>
</svg>
