<?xml version="1.0" encoding="UTF-8" standalone="no"?>
<svg
   xmlns:dc="http://purl.org/dc/elements/1.1/"
   xmlns:cc="http://creativecommons.org/ns#"
   xmlns:rdf="http://www.w3.org/1999/02/22-rdf-syntax-ns#"
   xmlns:svg="http://www.w3.org/2000/svg"
   xmlns="http://www.w3.org/2000/svg"
   width="500"
   height="500"
   viewBox="0 0 132.29166 132.29167"
   version="1.1"
   id="svg1054">
  <defs
     id="defs1048" />
  <metadata
     id="metadata1051">
    <rdf:RDF>
      <cc:Work
         rdf:about="">
        <dc:format>image/svg+xml</dc:format>
        <dc:type
           rdf:resource="http://purl.org/dc/dcmitype/StillImage" />
        <dc:title></dc:title>
      </cc:Work>
    </rdf:RDF>
  </metadata>
  <g
     id="layer1"
     transform="translate(0,-164.70832)">
    <g
       style="fill:none;stroke-width:1.06612539"
       id="ic_x5F_108_Wärme"
       transform="matrix(0.24817282,0,0,0.24817282,76.226291,191.14807)">
      <g
         style="fill:none;stroke-width:1.06612539"
         id="group1">
        <g
           transform="matrix(1.5898194,0,0,1.5898194,-204.80557,-103.9337)"
           id="ic_x5F_25_Dampfturbine"
           style="fill:none;stroke-width:0.71493858">
          <g
             id="group3"
             style="fill:none;stroke-width:0.71493858" />
          <g
             transform="matrix(1.0845898,0,0,1.0904198,-74.182753,45.51704)"
             id="ic_x5F_74_Elektromotor"
             style="fill:none;stroke-width:0.44085887">
            <g
               id="group1-0"
               style="fill:none;stroke-width:0.44085887">
              <g
                 transform="matrix(0.90928347,0,0,0.90442193,70.028729,-41.089626)"
                 id="ic_x5F_26_Gasturbine"
                 style="fill:none;stroke-width:0.29977489">
                <g
                   transform="translate(24.0628,17.1051)"
                   id="group1-3"
                   style="fill:none;stroke-width:0.29977489">
                  <g
                     transform="matrix(1.0904321,0,0,1.0904321,-90.155558,40.032633)"
                     id="ic_x5F_27_Gas-_Dampfturbine"
                     style="fill:none;stroke-width:0.18693571">
                    <g
                       transform="matrix(0.93934867,0,0,0.93934867,-2.025386,23.641553)"
                       id="group1-9"
                       style="fill:none;stroke-width:0.12409734">
                      <g
                         transform="translate(2.1581419,-1.8450614)"
                         id="ic_x5F_124_Thermisches_Kraftwerk__x28_technologie-neutral_x29_"
                         style="fill:none;stroke-width:0.12409734">
                        <g
                           transform="translate(-26.379685,83.40316)"
                           id="g1875"
                           style="fill:none;stroke-width:0.12409734" />
                        <g
                           style="fill:none;stroke-width:0.12409734"
                           id="g1881"
                           transform="translate(167.05432,267.38923)" />
                        <g
                           style="stroke-width:0.07765769"
                           id="g3012"
                           transform="matrix(1.0608358,0,0,1.0608358,-106.32153,-186.59814)">
                          <g
                             transform="matrix(1.0021384,0,0,1.0021384,99.810246,99.622731)"
                             id="ic_x5F_33_Biomasse"
                             style="fill:none;stroke-width:0.04849297">
                            <g
                               transform="translate(33.9138,27.805)"
                               id="group1-4"
                               style="fill:none;stroke-width:0.04849297">
                              <path
                                 d="M 71.11,66.1225 C 86.1065,51.093 91.9245,3.8433 88.8733,0.78699 85.824,-2.26932 38.6677,3.55827 23.6701,18.5857 4.52153,37.7727 -5.07923,79.3108 2.71496,87.1166 3.81787,88.2227 50.4273,44.1233 52.9715,44.3943 55.7073,44.6884 25.2871,83.5143 18.3503,88.7678 35.2092,86.4516 60.2776,76.9746 71.11,66.1225 Z"
                                 transform="translate(152.976,115.946)"
                                 id="shape1"
                                 style="fill:#fffffe;stroke-width:0.04849297;fill-opacity:1" />
                              <path
                                 d="M 18.5494,66.1225 C 3.55159,51.093 -2.26548,3.8433 0.785788,0.78699 3.83505,-2.26932 50.9924,3.55827 65.9912,18.5857 85.1392,37.7727 94.7412,79.3108 86.9488,87.1166 85.8449,88.2227 39.2345,44.1233 36.6893,44.3943 33.9534,44.6884 64.3762,83.5143 71.3122,88.7678 54.4489,86.4516 29.382,76.9746 18.5494,66.1225 Z"
                                 transform="translate(0.616974,115.946)"
                                 id="shape2"
                                 style="fill:#fffffe;stroke-width:0.04849297;fill-opacity:1" />
                              <path
                                 d="M 83.5461,77.7057 C 83.5461,49.6115 47.1455,0.00100043 41.7731,0 36.4026,0 0,49.6125 0,77.7057 0,113.57 28.0478,161.39 41.7731,161.39 c 1.9446,0 4.2288,-84.8758 6.7088,-87.0037 2.6687,-2.288 9.9998,62.4957 8.5096,73.9007 12.8094,-17.958 26.5546,-50.2925 26.5546,-70.5813 z"
                                 transform="translate(79.9282,0.625)"
                                 id="shape3"
                                 style="fill:#fffffe;stroke-width:0.04849297;fill-opacity:1" />
                              <path
                                 d="M 0,193.418 0.016252,0 H 11.407 l 0.0172,193.418 z"
                                 transform="translate(115.777,75.31)"
                                 id="shape4"
                                 style="fill:#fffffe;stroke-width:0.04849297;fill-opacity:1" />
                              <path
                                 d="M 0,73.4496 84.3961,0 87.7389,3.63656 7.96722,82.1184 Z"
                                 transform="translate(117.746,156.777)"
                                 id="shape5"
                                 style="fill:#fffffe;stroke-width:0.04849297;fill-opacity:1" />
                              <path
                                 d="M 79.7745,82.1184 0,3.63656 3.34287,0 87.7429,73.4496 Z"
                                 transform="translate(36.9692,156.777)"
                                 id="shape6"
                                 style="fill:#fffffe;stroke-width:0.04849297;fill-opacity:1" />
                            </g>
                            <g
                               id="group2"
                               style="fill:none;stroke-width:0.04849297">
                              <path
                                 d="m 155,13 c 37.93,0 73.589,14.771 100.409,41.591 C 282.229,81.411 297,117.07 297,155 297,192.93 282.229,228.589 255.409,255.409 228.589,282.229 192.93,297 155,297 117.07,297 81.411,282.229 54.591,255.409 27.771,228.589 13,192.93 13,155 13,117.07 27.771,81.411 54.591,54.591 81.411,27.771 117.07,13 155,13 M 155,0 C 69.396,0 0,69.396 0,155 0,240.604 69.396,310 155,310 240.604,310 310,240.604 310,155 310,69.396 240.604,0 155,0 Z"
                                 transform="translate(0.625,0.625)"
                                 id="shape7"
                                 style="fill:#ffffff;stroke-width:0.04849297;fill-opacity:1" />
                            </g>
                          </g>
                        </g>
                      </g>
                    </g>
                  </g>
                </g>
              </g>
            </g>
          </g>
        </g>
      </g>
    </g>
  </g>
</svg>
