<?xml version="1.0" encoding="UTF-8" standalone="no"?>
<svg
   xmlns:dc="http://purl.org/dc/elements/1.1/"
   xmlns:cc="http://creativecommons.org/ns#"
   xmlns:rdf="http://www.w3.org/1999/02/22-rdf-syntax-ns#"
   xmlns:svg="http://www.w3.org/2000/svg"
   xmlns="http://www.w3.org/2000/svg"
   width="500"
   height="500"
   viewBox="0 0 132.29166 132.29167"
   version="1.1"
   id="svg1054">
  <defs
     id="defs1048" />
  <metadata
     id="metadata1051">
    <rdf:RDF>
      <cc:Work
         rdf:about="">
        <dc:format>image/svg+xml</dc:format>
        <dc:type
           rdf:resource="http://purl.org/dc/dcmitype/StillImage" />
        <dc:title></dc:title>
      </cc:Work>
    </rdf:RDF>
  </metadata>
  <g
     id="layer1"
     transform="translate(0,-164.70832)">
    <g
       style="fill:none;stroke-width:1.06612539"
       id="ic_x5F_108_Wärme"
       transform="matrix(0.24817282,0,0,0.24817282,76.226291,191.14807)">
      <g
         style="fill:none;stroke-width:1.06612539"
         id="group1">
        <g
           transform="matrix(1.5898194,0,0,1.5898194,-204.80557,-103.9337)"
           id="ic_x5F_25_Dampfturbine"
           style="fill:none;stroke-width:0.71493858">
          <g
             id="group3"
             style="fill:none;stroke-width:0.71493858" />
          <g
             transform="matrix(1.0845898,0,0,1.0904198,-74.182753,45.51704)"
             id="ic_x5F_74_Elektromotor"
             style="fill:none;stroke-width:0.44085887">
            <g
               id="group1-0"
               style="fill:none;stroke-width:0.44085887">
              <g
                 transform="matrix(0.90928347,0,0,0.90442193,70.028729,-41.089626)"
                 id="ic_x5F_26_Gasturbine"
                 style="fill:none;stroke-width:0.29977489">
                <g
                   transform="translate(24.0628,17.1051)"
                   id="group1-3"
                   style="fill:none;stroke-width:0.29977489">
                  <g
                     transform="matrix(1.0904321,0,0,1.0904321,-90.155558,40.032633)"
                     id="ic_x5F_27_Gas-_Dampfturbine"
                     style="fill:none;stroke-width:0.18693571">
                    <g
                       transform="matrix(0.93934867,0,0,0.93934867,-2.025386,23.641553)"
                       id="group1-9"
                       style="fill:none;stroke-width:0.12409734">
                      <g
                         transform="translate(2.1581419,-1.8450614)"
                         id="ic_x5F_124_Thermisches_Kraftwerk__x28_technologie-neutral_x29_"
                         style="fill:none;stroke-width:0.12409734">
                        <g
                           transform="translate(-26.379685,83.40316)"
                           id="g1875"
                           style="fill:none;stroke-width:0.12409734" />
                        <g
                           style="fill:none;stroke-width:0.12409734"
                           id="g1881"
                           transform="translate(167.05432,267.38923)" />
                        <g
                           style="stroke-width:0.07765769"
                           id="g3012"
                           transform="matrix(1.0608358,0,0,1.0608358,-106.32153,-186.59814)">
                          <g
                             transform="matrix(1.0021384,0,0,1.0021384,99.810246,99.622731)"
                             id="ic_x5F_33_Biomasse"
                             style="fill:none;stroke-width:0.04849297">
                            <g
                               transform="translate(-5.3749973,2.5113704e-6)"
                               id="ic_x5F_30_Erdgas"
                               style="fill:none;stroke-width:0.0302812">
                              <g
                                 transform="translate(5.375)"
                                 id="group1-00"
                                 style="fill:none;stroke-width:0.0302812">
                                <path
                                   d="m 155,13 c 37.93,0 73.589,14.771 100.409,41.591 C 282.229,81.411 297,117.07 297,155 297,192.93 282.229,228.589 255.409,255.409 228.589,282.229 192.93,297 155,297 117.07,297 81.411,282.229 54.591,255.409 27.771,228.589 13,192.93 13,155 13,117.07 27.771,81.411 54.591,54.591 81.411,27.771 117.07,13 155,13 M 155,0 C 69.396,0 0,69.396 0,155 0,240.604 69.396,310 155,310 240.604,310 310,240.604 310,155 310,69.396 240.604,0 155,0 Z"
                                   transform="translate(0.625,0.625)"
                                   id="shape3"
                                   style="fill:#002e4f;stroke-width:0.0302812;fill-opacity:1" />
                              </g>
                              <path
                                 d="m 0,0 h 135.386 v 90.7507 h 22.98 V 0 H 295.75"
                                 stroke-miterlimit="2.00000000000"
                                 transform="translate(13,162.125)"
                                 id="shape4"
                                 style="fill:none;stroke:#002e4f;stroke-width:12.48890407;stroke-linecap:butt;stroke-linejoin:miter;stroke-miterlimit:2;stroke-dasharray:none;stroke-opacity:1" />
                              <path
                                 d="M 31.2069,103.361 C 18.6041,97.9211 0,86.4361 0,58.6309 0,23.4299 45.008,0 45.008,0 c 0,0 -4.8739,23.5434 6.5267,35.0283 11.4025,11.485 19.274,27.2298 19.274,36.2977 0,26.0377 -26.4019,32.036 -26.4019,32.036 0,0 8.032,-10.5613 6.2127,-20.8302 C 48.6466,71.3501 34.9861,59.842 34.9861,59.842 c 0,0 -13.4262,13.0736 -12.2279,23.3475 1.1983,10.274 8.4487,20.1715 8.4487,20.1715 z"
                                 stroke-miterlimit="2.00000000000"
                                 transform="translate(123.063,42.403)"
                                 id="shape5"
                                 style="fill:#002e4f;stroke:none;stroke-width:0.86953998;stroke-linecap:butt;stroke-linejoin:miter;stroke-miterlimit:2;fill-opacity:1" />
                            </g>
                          </g>
                        </g>
                      </g>
                    </g>
                  </g>
                </g>
              </g>
            </g>
          </g>
        </g>
      </g>
    </g>
  </g>
</svg>
