<?xml version="1.0" encoding="UTF-8" standalone="no"?>
<svg
   xmlns:dc="http://purl.org/dc/elements/1.1/"
   xmlns:cc="http://creativecommons.org/ns#"
   xmlns:rdf="http://www.w3.org/1999/02/22-rdf-syntax-ns#"
   xmlns:svg="http://www.w3.org/2000/svg"
   xmlns="http://www.w3.org/2000/svg"
   id="svg1054"
   version="1.1"
   viewBox="0 0 132.29166 132.29167"
   height="500"
   width="500">
  <defs
     id="defs1048" />
  <metadata
     id="metadata1051">
    <rdf:RDF>
      <cc:Work
         rdf:about="">
        <dc:format>image/svg+xml</dc:format>
        <dc:type
           rdf:resource="http://purl.org/dc/dcmitype/StillImage" />
        <dc:title></dc:title>
      </cc:Work>
    </rdf:RDF>
  </metadata>
  <g
     transform="matrix(0.32088974,0,0,0.32088974,0.21111797,50.260327)"
     id="ic_x5F_03_Photovoltaik-Freiflächenanlage__x28_nicht_nachgeführt_x29_"
     style="fill:none;stroke-width:0.82453036">
    <g
       id="ic_x5F_16_Laufwasserkraftwerk"
       transform="matrix(1.7595667,0,0,1.7595667,-16.869078,-151.83647)"
       style="fill:none;stroke-width:0.55775899">
      <g
         id="group1"
         transform="translate(0,185.406)"
         style="fill:none;stroke-width:0.55775899">
        <path
           id="path6_17_"
           transform="translate(10,28.2805)"
           d="m 0,4.8865e-4 c 2.54692,0 5.09184,0.48862535 7.488,1.46392135 l 4.4928,1.82869 c 4.7923,1.9506 10.1837,1.9506 14.976,0 l 4.4928,-1.82869 c 4.7933,-1.952547 10.1837,-1.952547 14.976,0 l 4.4928,1.82869 v 0 c 4.7913,1.9506 10.1827,1.9506 14.976,0 l 4.4918,-1.82869 c 4.7943,-1.952547 10.1837,-1.952547 14.977,0 L 89.856,3.2931 c 2.3732,0.96457 4.9171,1.46295 7.488,1.46295 2.5699,0 5.115,-0.49838 7.488,-1.46295 l 4.493,-1.82869 c 4.793,-1.952547 10.182,-1.952547 14.976,0 l 4.493,1.82869 c 4.792,1.9506 10.185,1.9506 14.976,0 l 4.492,-1.82869 c 2.397,-0.975296 4.944,-1.46392135 7.488,-1.46392135"
           style="fill:none;stroke:#ffffff;stroke-width:4.68598557;stroke-linecap:butt;stroke-linejoin:round;stroke-opacity:1" />
        <path
           id="path6_16_"
           transform="translate(10,9.99951)"
           d="m 0,4.8865e-4 c 2.54692,0 5.09184,0.48862535 7.488,1.46392135 l 4.4928,1.82869 c 4.7923,1.9506 10.1837,1.9506 14.976,0 l 4.4928,-1.82869 c 4.7933,-1.952547 10.1837,-1.952547 14.976,0 l 4.4928,1.82869 v 0 c 4.7913,1.9506 10.1827,1.9506 14.976,0 l 4.4918,-1.82869 c 4.7943,-1.952547 10.1837,-1.952547 14.977,0 L 89.856,3.2931 c 2.3732,0.96457 4.9171,1.46295 7.488,1.46295 2.5699,0 5.115,-0.49838 7.488,-1.46295 l 4.493,-1.82869 c 4.793,-1.952547 10.182,-1.952547 14.976,0 l 4.493,1.82869 c 4.792,1.9506 10.185,1.9506 14.976,0 l 4.492,-1.82869 c 2.397,-0.975296 4.944,-1.46392135 7.488,-1.46392135"
           style="fill:none;stroke:#ffffff;stroke-width:4.68598557;stroke-linecap:butt;stroke-linejoin:round;stroke-opacity:1" />
      </g>
      <g
         id="group2"
         transform="translate(77.499,185.406)"
         style="fill:none;stroke-width:0.55775899">
        <path
           id="path6_18_"
           transform="translate(10,28.2805)"
           d="m 0,4.8865e-4 c 2.54692,0 5.09184,0.48862535 7.488,1.46392135 l 4.4928,1.82869 c 4.7913,1.9506 10.1827,1.9506 14.976,0 l 4.4928,-1.82869 c 4.7933,-1.952547 10.1827,-1.952547 14.976,0 l 4.4928,1.82869 v 0 c 4.7913,1.9506 10.1827,1.9506 14.976,0 l 4.4908,-1.82869 c 4.7953,-1.952547 10.1847,-1.952547 14.978,0 L 89.856,3.2931 c 2.3732,0.96457 4.9161,1.46295 7.488,1.46295 2.5699,0 5.115,-0.49838 7.488,-1.46295 l 4.493,-1.82869 c 4.793,-1.952547 10.182,-1.952547 14.976,0 l 4.493,1.82869 c 4.791,1.9506 10.185,1.9506 14.976,0 l 4.492,-1.82869 c 2.397,-0.975296 4.944,-1.46392135 7.488,-1.46392135"
           style="fill:none;stroke:#ffffff;stroke-width:4.68598557;stroke-linecap:butt;stroke-linejoin:round;stroke-opacity:1" />
        <path
           id="path6_15_"
           transform="translate(10,9.99951)"
           d="m 0,4.8865e-4 c 2.54692,0 5.09184,0.48862535 7.488,1.46392135 l 4.4928,1.82869 c 4.7913,1.9506 10.1827,1.9506 14.976,0 l 4.4928,-1.82869 c 4.7933,-1.952547 10.1827,-1.952547 14.976,0 l 4.4928,1.82869 v 0 c 4.7913,1.9506 10.1827,1.9506 14.976,0 l 4.4908,-1.82869 c 4.7953,-1.952547 10.1847,-1.952547 14.978,0 L 89.856,3.2931 c 2.3732,0.96457 4.9161,1.46295 7.488,1.46295 2.5699,0 5.115,-0.49838 7.488,-1.46295 l 4.493,-1.82869 c 4.793,-1.952547 10.182,-1.952547 14.976,0 l 4.493,1.82869 c 4.791,1.9506 10.185,1.9506 14.976,0 l 4.492,-1.82869 c 2.397,-0.975296 4.944,-1.46392135 7.488,-1.46392135"
           style="fill:none;stroke:#ffffff;stroke-width:4.68598557;stroke-linecap:butt;stroke-linejoin:round;stroke-opacity:1" />
      </g>
      <g
         id="group3"
         transform="translate(76.576,61.8114)"
         style="fill:none;stroke-width:0.55775899">
        <path
           id="shape3"
           transform="translate(0.625,0.625)"
           d="m 49.7231,7.02453 c 23.5435,0 42.6975,19.15387 42.6975,42.69707 0,23.5432 -19.153,42.6971 -42.6975,42.6971 -23.5444,0 -42.6975,-19.1539 -42.6975,-42.6971 0,-23.5432 19.1541,-42.69707 42.6975,-42.69707 M 49.7231,0 C 22.2609,0 0,22.2617 0,49.7216 0,77.1825 22.2609,99.4432 49.7231,99.4432 77.1803,99.4432 99.4452,77.1825 99.4452,49.7216 99.4462,22.2617 77.1803,0 49.7231,0 Z"
           style="fill:#ffffff;stroke-width:0.55775899;fill-opacity:1" />
      </g>
      <g
         id="group4"
         transform="translate(41.8971)"
         style="fill:none;stroke-width:0.55775899">
        <g
           id="group5"
           style="fill:none;stroke-width:0.55775899;fill-opacity:1;stroke:#002e4f;stroke-opacity:1">
          <path
             id="shape4"
             transform="translate(14.1419,11.6973)"
             stroke-miterlimit="2.00000000000"
             d="m 0,29.8343 c 39.0997,-39.78263 102.496,-39.7755 141.588,0"
             style="fill:none;stroke:#ffffff;stroke-width:4.68598557;stroke-linecap:square;stroke-linejoin:miter;stroke-miterlimit:2;fill-opacity:1;stroke-opacity:1" />
          <g
             id="group6"
             transform="translate(9.03249,35.872)"
             style="fill:#002e4f;stroke-width:0.55775899;fill-opacity:1;stroke:#002e4f;stroke-opacity:1">
            <rect
               id="shape5"
               transform="matrix(0.7071,0.7071,-0.7071,0.7071,5.11021,0.441938)"
               width="6.6020002"
               height="6.6020002"
               x="0"
               y="0"
               style="fill:#ffffff;stroke-width:0.55775899;fill-opacity:1;stroke:#ffffff;stroke-opacity:1" />
          </g>
          <g
             id="group7"
             transform="translate(140.146,25.4394)"
             style="fill:#002e4f;stroke-width:0.55775899;fill-opacity:1;stroke:#002e4f;stroke-opacity:1">
            <path
               id="shape6"
               transform="translate(0.441945,0.441938)"
               d="M 0,23.6663 32.3251,32.3292 23.6659,0 Z"
               style="fill:#ffffff;stroke-width:0.55775899;fill-opacity:1;stroke:#ffffff;stroke-opacity:1" />
          </g>
        </g>
      </g>
      <g
         id="group8"
         transform="translate(52.75,37.9844)"
         style="fill:none;stroke-width:0.55775899">
        <path
           id="shape7"
           transform="translate(74,10)"
           stroke-miterlimit="2.00000000000"
           d="M 0,0 V 128"
           style="fill:none;stroke:#ffffff;stroke-width:4.68598557;stroke-linecap:butt;stroke-linejoin:miter;stroke-miterlimit:2;stroke-opacity:1" />
        <path
           id="shape8"
           transform="translate(10,74)"
           stroke-miterlimit="2.00000000000"
           d="M 0,0 H 128"
           style="fill:none;stroke:#ffffff;stroke-width:4.68598557;stroke-linecap:butt;stroke-linejoin:miter;stroke-miterlimit:2;stroke-opacity:1" />
        <path
           id="shape9"
           transform="translate(28.958,28.568)"
           stroke-miterlimit="2.00000000000"
           d="M 0,0 91.0229,91.0229"
           style="fill:none;stroke:#ffffff;stroke-width:4.68598557;stroke-linecap:butt;stroke-linejoin:miter;stroke-miterlimit:2;stroke-opacity:1" />
        <path
           id="shape10"
           transform="translate(28.958,28.569)"
           stroke-miterlimit="2.00000000000"
           d="M 0,91.0209 91.0229,0"
           style="fill:none;stroke:#ffffff;stroke-width:4.68598557;stroke-linecap:butt;stroke-linejoin:miter;stroke-miterlimit:2;stroke-opacity:1" />
      </g>
    </g>
  </g>
</svg>
