<?xml version="1.0" encoding="UTF-8" standalone="no"?>
<svg
   xmlns:dc="http://purl.org/dc/elements/1.1/"
   xmlns:cc="http://creativecommons.org/ns#"
   xmlns:rdf="http://www.w3.org/1999/02/22-rdf-syntax-ns#"
   xmlns:svg="http://www.w3.org/2000/svg"
   xmlns="http://www.w3.org/2000/svg"
   id="svg1054"
   version="1.1"
   viewBox="0 0 132.29166 132.29167"
   height="500"
   width="500">
  <defs
     id="defs1048" />
  <metadata
     id="metadata1051">
    <rdf:RDF>
      <cc:Work
         rdf:about="">
        <dc:format>image/svg+xml</dc:format>
        <dc:type
           rdf:resource="http://purl.org/dc/dcmitype/StillImage" />
        <dc:title></dc:title>
      </cc:Work>
    </rdf:RDF>
  </metadata>
  <g
     transform="matrix(0.32088974,0,0,0.32088974,0.21111797,50.260327)"
     id="ic_x5F_03_Photovoltaik-Freiflächenanlage__x28_nicht_nachgeführt_x29_"
     style="fill:none;stroke-width:0.82453036">
    <path
       d="M 0,0 18.5143,18.5143"
       transform="translate(357.22,64.465)"
       id="shape1"
       style="fill:#ffffff;stroke:#ffffff;stroke-width:4.12265205;stroke-linecap:round;stroke-linejoin:round;stroke-opacity:1;fill-opacity:1" />
    <path
       d="M 0,0 25,25"
       transform="translate(208.41,71.484)"
       id="shape2"
       style="fill:#ffffff;stroke:#ffffff;stroke-width:7.86313391;stroke-linecap:round;stroke-linejoin:round;stroke-opacity:1;fill-opacity:1" />
    <g
       id="group1"
       style="fill:none;stroke-width:0.82453036">
      <path
         d="M 67.6187,0 H 27.0477 L 0,23.5111 h 40.57 z"
         transform="translate(64.046,25.625)"
         id="shape3"
         style="fill:#ffffff;stroke-width:0.82453036;fill-opacity:1" />
      <path
         d="M 67.6167,0 H 27.0473 L 0,23.5111 h 40.5704 z"
         transform="translate(109.501,25.625)"
         id="shape4"
         style="fill:#ffffff;stroke-width:0.82453036;fill-opacity:1" />
      <path
         d="M 67.6167,0 H 27.0473 L 0,23.5111 h 40.5714 z"
         transform="translate(154.955,25.625)"
         id="shape5"
         style="fill:#ffffff;stroke-width:0.82453036;fill-opacity:1" />
      <path
         d="M 67.6187,0 H 27.0467 L 0,23.5111 h 40.57 z"
         transform="translate(200.41,25.625)"
         id="shape6"
         style="fill:#ffffff;stroke-width:0.82453036;fill-opacity:1" />
      <path
         d="M 67.6187,0 H 27.0467 L 0,21.5111 h 40.571 z"
         transform="translate(95.865,0.625)"
         id="shape7"
         style="fill:#ffffff;stroke-width:0.82453036;fill-opacity:1" />
      <path
         d="M 67.6147,0 H 27.0469 L 0,21.5111 h 40.5698 z"
         transform="translate(141.319,0.625)"
         id="shape8"
         style="fill:#ffffff;stroke-width:0.82453036;fill-opacity:1" />
      <path
         d="M 67.6167,0 H 27.0463 L 0,21.5111 h 40.5694 z"
         transform="translate(186.774,0.625)"
         id="shape9"
         style="fill:#ffffff;stroke-width:0.82453036;fill-opacity:1" />
      <path
         d="M 67.6187,0 H 27.0477 L 0,21.5111 h 40.571 z"
         transform="translate(232.228,0.625)"
         id="shape10"
         style="fill:#ffffff;stroke-width:0.82453036;fill-opacity:1" />
      <path
         d="M 67.6187,0 H 27.0477 L 0,23.5111 h 40.571 z"
         transform="translate(0.410026,77.625)"
         id="shape11"
         style="fill:#ffffff;stroke-width:0.82453036;fill-opacity:1" />
      <path
         d="M 67.6167,0 H 27.0463 L 0,23.5111 h 40.5704 z"
         transform="translate(45.865,77.625)"
         id="shape12"
         style="fill:#ffffff;stroke-width:0.82453036;fill-opacity:1" />
      <path
         d="m 67.6187,0 h -40.57 L 0,23.5111 h 40.571 z"
         transform="translate(91.319,77.625)"
         id="shape13"
         style="fill:#ffffff;stroke-width:0.82453036;fill-opacity:1" />
      <path
         d="M 67.6167,0 H 27.0473 L 0,23.5111 h 40.5694 z"
         transform="translate(136.774,77.625)"
         id="shape14"
         style="fill:#ffffff;stroke-width:0.82453036;fill-opacity:1" />
      <path
         d="M 67.6207,0 H 27.0481 L 0,21.5111 h 40.5726 z"
         transform="translate(32.227,52.625)"
         id="shape15"
         style="fill:#ffffff;stroke-width:0.82453036;fill-opacity:1" />
      <path
         d="M 67.6187,0 H 27.0457 L 0,21.5111 h 40.572 z"
         transform="translate(77.683,52.625)"
         id="shape16"
         style="fill:#ffffff;stroke-width:0.82453036;fill-opacity:1" />
      <path
         d="M 67.6187,0 H 27.0477 L 0,21.5111 h 40.572 z"
         transform="translate(123.137,52.625)"
         id="shape17"
         style="fill:#ffffff;stroke-width:0.82453036;fill-opacity:1" />
      <path
         d="M 67.6207,0 H 27.0481 L 0,21.5111 h 40.5696 z"
         transform="translate(168.592,52.625)"
         id="shape18"
         style="fill:#ffffff;stroke-width:0.82453036;fill-opacity:1" />
    </g>
    <g
       transform="translate(240.998,27)"
       id="group2"
       style="fill:#ffffff;stroke-width:0.82453036;fill-opacity:1">
      <path
         d="M 38.5243,0 H 15.4109 L 0,13.52 h 23.1144 z"
         transform="translate(36.4722,15.625)"
         id="shape19"
         style="fill:#ffffff;stroke-width:0.82453036;fill-opacity:1" />
      <path
         d="M 38.5223,0 H 15.4085 L 0,13.52 h 23.1138 z"
         transform="translate(62.2302,15.625)"
         id="shape20"
         style="fill:#ffffff;stroke-width:0.82453036;fill-opacity:1" />
      <path
         d="M 38.5223,0 H 15.4095 L 0,13.52 h 23.1148 z"
         transform="translate(87.9872,15.625)"
         id="shape21"
         style="fill:#ffffff;stroke-width:0.82453036;fill-opacity:1" />
      <path
         d="M 38.5243,0 H 15.4099 L 0,13.52 h 23.1144 z"
         transform="translate(113.745,15.625)"
         id="shape22"
         style="fill:#ffffff;stroke-width:0.82453036;fill-opacity:1" />
      <path
         d="M 38.5223,0 H 15.4085 L 0,13.52 h 23.1128 z"
         transform="translate(54.5032,0.625)"
         id="shape23"
         style="fill:#ffffff;stroke-width:0.82453036;fill-opacity:1" />
      <path
         d="M 38.5183,0 H 15.4077 L 0,13.52 h 23.1116 z"
         transform="translate(80.2612,0.625)"
         id="shape24"
         style="fill:#ffffff;stroke-width:0.82453036;fill-opacity:1" />
      <path
         d="M 38.5223,0 H 15.4085 L 0,13.52 h 23.1138 z"
         transform="translate(106.018,0.625)"
         id="shape25"
         style="fill:#ffffff;stroke-width:0.82453036;fill-opacity:1" />
      <path
         d="M 38.5243,0 H 15.4099 L 0,13.52 h 23.1154 z"
         transform="translate(131.775,0.625)"
         id="shape26"
         style="fill:#ffffff;stroke-width:0.82453036;fill-opacity:1" />
      <path
         d="M 38.5243,0 H 15.4099 L 0,13.52 h 23.1144 z"
         transform="translate(0.412192,44.625)"
         id="shape27"
         style="fill:#ffffff;stroke-width:0.82453036;fill-opacity:1" />
      <path
         d="M 38.5223,0 H 15.4085 L 0,13.52 h 23.1128 z"
         transform="translate(26.1702,44.625)"
         id="shape28"
         style="fill:#ffffff;stroke-width:0.82453036;fill-opacity:1" />
      <path
         d="M 38.5203,0 H 15.4081 L 0,13.52 h 23.1122 z"
         transform="translate(51.9282,44.625)"
         id="shape29"
         style="fill:#ffffff;stroke-width:0.82453036;fill-opacity:1" />
      <path
         d="M 38.5243,0 H 15.4099 L 0,13.52 h 23.1144 z"
         transform="translate(77.6842,44.625)"
         id="shape30"
         style="fill:#ffffff;stroke-width:0.82453036;fill-opacity:1" />
      <path
         d="M 38.5243,0 H 15.4089 L 0,11.52 h 23.1144 z"
         transform="translate(18.4422,30.625)"
         id="shape31"
         style="fill:#ffffff;stroke-width:0.82453036;fill-opacity:1" />
      <path
         d="M 38.5243,0 H 15.4089 L 0,11.52 h 23.1144 z"
         transform="translate(44.2002,30.625)"
         id="shape32"
         style="fill:#ffffff;stroke-width:0.82453036;fill-opacity:1" />
      <path
         d="M 38.5243,0 H 15.4099 L 0,11.52 h 23.1144 z"
         transform="translate(69.9572,30.625)"
         id="shape33"
         style="fill:#ffffff;stroke-width:0.82453036;fill-opacity:1" />
      <path
         d="M 38.5243,0 H 15.4099 L 0,11.52 h 23.1124 z"
         transform="translate(95.7152,30.625)"
         id="shape34"
         style="fill:#ffffff;stroke-width:0.82453036;fill-opacity:1" />
    </g>
  </g>
</svg>
