<?xml version="1.0" encoding="UTF-8" standalone="no"?>
<svg
   xmlns:dc="http://purl.org/dc/elements/1.1/"
   xmlns:cc="http://creativecommons.org/ns#"
   xmlns:rdf="http://www.w3.org/1999/02/22-rdf-syntax-ns#"
   xmlns:svg="http://www.w3.org/2000/svg"
   xmlns="http://www.w3.org/2000/svg"
   id="svg1054"
   version="1.1"
   viewBox="0 0 132.29166 132.29167"
   height="500"
   width="500">
  <defs
     id="defs1048" />
  <metadata
     id="metadata1051">
    <rdf:RDF>
      <cc:Work
         rdf:about="">
        <dc:format>image/svg+xml</dc:format>
        <dc:type
           rdf:resource="http://purl.org/dc/dcmitype/StillImage" />
        <dc:title></dc:title>
      </cc:Work>
    </rdf:RDF>
  </metadata>
  <g
     transform="matrix(0.32088974,0,0,0.32088974,0.21111797,50.260327)"
     id="ic_x5F_03_Photovoltaik-Freiflächenanlage__x28_nicht_nachgeführt_x29_"
     style="fill:none;stroke-width:0.82453036">
    <g
       id="group1"
       style="fill:#002e4f;stroke-width:0.51276368;fill-opacity:1"
       transform="matrix(1.3258551,0,0,1.3258551,-0.72246561,-31.050702)">
      <path
         id="shape1"
         transform="translate(66.1642,26.625)"
         d="M 70.9109,0 H 28.3638 L 0,24.2526 h 42.5462 z"
         style="fill:#002e4f;stroke-width:0.51276368;fill-opacity:1" />
      <path
         id="shape2"
         transform="translate(113.133,26.625)"
         d="M 70.913,0 H 28.3662 L 0,24.2526 h 42.5478 z"
         style="fill:#002e4f;stroke-width:0.51276368;fill-opacity:1" />
      <path
         id="shape3"
         transform="translate(160.103,26.625)"
         d="M 70.9109,0 H 28.3648 L 0,24.2526 h 42.5482 z"
         style="fill:#002e4f;stroke-width:0.51276368;fill-opacity:1" />
      <path
         id="shape4"
         transform="translate(207.072,26.625)"
         d="M 70.913,0 H 28.3652 L 0,24.2526 h 42.5468 z"
         style="fill:#002e4f;stroke-width:0.51276368;fill-opacity:1" />
      <path
         id="shape5"
         transform="translate(99.0422,0.625)"
         d="M 70.913,0 H 28.3652 L 0,23.5111 h 42.5488 z"
         style="fill:#002e4f;stroke-width:0.51276368;fill-opacity:1" />
      <path
         id="shape6"
         transform="translate(146.012,0.625)"
         d="M 70.9109,0 H 28.3648 L 0,23.5111 h 42.5472 z"
         style="fill:#002e4f;stroke-width:0.51276368;fill-opacity:1" />
      <path
         id="shape7"
         transform="translate(192.982,0.625)"
         d="M 70.9109,0 H 28.3648 L 0,23.5111 h 42.5462 z"
         style="fill:#002e4f;stroke-width:0.51276368;fill-opacity:1" />
      <path
         id="shape8"
         transform="translate(239.952,0.625)"
         d="M 70.9109,0 H 28.3638 L 0,23.5111 h 42.5472 z"
         style="fill:#002e4f;stroke-width:0.51276368;fill-opacity:1" />
      <path
         id="shape9"
         transform="translate(0.406161,80.625)"
         d="M 70.913,0 H 28.3652 L 0,24.2526 h 42.5468 z"
         style="fill:#002e4f;stroke-width:0.51276368;fill-opacity:1" />
      <path
         id="shape10"
         transform="translate(47.3762,80.625)"
         d="M 70.9109,0 H 28.3638 L 0,24.2526 h 42.5462 z"
         style="fill:#002e4f;stroke-width:0.51276368;fill-opacity:1" />
      <path
         id="shape11"
         transform="translate(94.3452,80.625)"
         d="M 70.9109,0 H 28.3658 L 0,24.2526 h 42.5472 z"
         style="fill:#002e4f;stroke-width:0.51276368;fill-opacity:1" />
      <path
         id="shape12"
         transform="translate(141.316,80.625)"
         d="M 70.9089,0 H 28.3634 L 0,24.2526 h 42.5456 z"
         style="fill:#002e4f;stroke-width:0.51276368;fill-opacity:1" />
      <path
         id="shape13"
         transform="translate(33.2842,54.625)"
         d="M 70.913,0 H 28.3652 L 0,23.5111 h 42.5478 z"
         style="fill:#002e4f;stroke-width:0.51276368;fill-opacity:1" />
      <path
         id="shape14"
         transform="translate(80.2552,54.625)"
         d="M 70.913,0 H 28.3642 L 0,23.5111 h 42.5478 z"
         style="fill:#002e4f;stroke-width:0.51276368;fill-opacity:1" />
      <path
         id="shape15"
         transform="translate(127.224,54.625)"
         d="M 70.9109,0 H 28.3648 L 0,23.5111 h 42.5472 z"
         style="fill:#002e4f;stroke-width:0.51276368;fill-opacity:1" />
      <path
         id="shape16"
         transform="translate(174.194,54.625)"
         d="M 70.913,0 H 28.3662 L 0,23.5111 h 42.5468 z"
         style="fill:#002e4f;stroke-width:0.51276368;fill-opacity:1" />
    </g>
  </g>
</svg>
