<?xml version="1.0" encoding="UTF-8" standalone="no"?>
<svg
   xmlns:dc="http://purl.org/dc/elements/1.1/"
   xmlns:cc="http://creativecommons.org/ns#"
   xmlns:rdf="http://www.w3.org/1999/02/22-rdf-syntax-ns#"
   xmlns:svg="http://www.w3.org/2000/svg"
   xmlns="http://www.w3.org/2000/svg"
   id="svg1054"
   version="1.1"
   viewBox="0 0 132.29166 132.29167"
   height="500"
   width="500">
  <defs
     id="defs1048" />
  <metadata
     id="metadata1051">
    <rdf:RDF>
      <cc:Work
         rdf:about="">
        <dc:format>image/svg+xml</dc:format>
        <dc:type
           rdf:resource="http://purl.org/dc/dcmitype/StillImage" />
        <dc:title></dc:title>
      </cc:Work>
    </rdf:RDF>
  </metadata>
  <g
     transform="matrix(0.32088974,0,0,0.32088974,0.21111797,50.260327)"
     id="ic_x5F_03_Photovoltaik-Freifl채chenanlage__x28_nicht_nachgef체hrt_x29_"
     style="fill:none;stroke-width:0.82453036">
    <g
       id="ic_x5F_16_Laufwasserkraftwerk"
       transform="matrix(1.7595667,0,0,1.7595667,-16.869078,-151.83647)"
       style="fill:none;stroke-width:0.55775899">
      <g
         transform="matrix(0.70232166,0,0,0.70228163,6.4050223,76.277489)"
         id="ic_x5F_62_Leitung_f체r_W채rme"
         style="fill:none;stroke-width:0.37215495">
        <path
           id="shape1"
           transform="matrix(0.66721354,0,0,0.66725157,3.9983593,-112.49139)"
           d="M 359.98828 177.99414 L 33.863281 209.56055 C 18.927433 209.56055 3 223.6424 3 241.12891 C 3 258.61556 17.948781 272.69531 33.863281 272.69531 L 359.98828 303.88672 L 359.98828 299.02148 C 359.71624 299.02724 359.44696 299.04688 359.17383 299.04688 C 333.16282 299.04688 312.00195 272.84616 312.00195 240.63867 C 312.00195 208.43133 333.16282 182.23047 359.17383 182.23047 C 359.44696 182.23047 359.71624 182.2501 359.98828 182.25586 L 359.98828 177.99414 z "
           style="fill:#fffffe;stroke:#ffffff;stroke-width:6.00000048;stroke-linecap:butt;stroke-linejoin:miter;stroke-miterlimit:2;fill-opacity:1;stroke-opacity:1" />
        <g
           transform="translate(205.719,102.73781)"
           id="group1"
           style="fill:#002e4f;stroke-width:0.37215495;fill-opacity:1">
          <path
             transform="matrix(0.66721354,0,0,0.66725157,-201.72064,-115.14148)"
             id="path7812"
             d="m 359.47266,23.498047 c -31.03954,0 -56.20313,30.192632 -56.20313,67.439453 0,37.24832 25.16359,67.44141 56.20313,67.44141 31.03953,0 56.20507,-30.19309 56.20507,-67.44141 0,-37.246821 -25.16554,-67.439453 -56.20507,-67.439453 z m 0,17.462891 c 9.73751,0 19.08711,4.783868 26.32617,13.46875 8.00493,9.606571 12.41211,22.571539 12.41211,36.507812 0,13.93777 -4.40718,26.90319 -12.41211,36.50977 -7.23906,8.68488 -16.58866,13.46679 -26.32617,13.46679 -9.73752,0 -19.08516,-4.78191 -26.32422,-13.46679 -8.00494,-9.60658 -12.41211,-22.5735 -12.41211,-36.50977 0,-13.936273 4.40717,-26.901241 12.41211,-36.507812 7.23906,-8.684882 16.5867,-13.46875 26.32422,-13.46875 z"
             style="fill:#fffffe;stroke:none;stroke-width:0.55775899;stroke-opacity:1;fill-opacity:1" />
        </g>
        <g
           transform="translate(292.195,5.15009)"
           id="group2"
           style="fill:none;stroke-width:0.37215495">
          <path
             d="M 33.184,16.592 C 33.184,7.42849 25.7555,0 16.592,0 7.42849,0 0,7.42849 0,16.592 c 0,9.1635 7.42849,16.592 16.592,16.592 9.1635,0 16.592,-7.4285 16.592,-16.592"
             transform="translate(0.625,52.443)"
             id="shape4"
             style="fill:#ffffff;stroke-width:0.37215495;fill-opacity:1" />
          <g
             transform="translate(7.741)"
             id="group3"
             style="fill:none;stroke-width:0.37215495">
            <path
               d="m 8.95114,4.61535 c 2.37656,0 4.31026,1.92424 4.31026,4.29028 V 52.357 H 4.6389 V 8.90563 c 0,-2.36504 1.93464,-4.29028 4.31224,-4.29028 M 8.95114,0 C 4.00986,0 0,3.98635 0,8.90563 V 56.9723 H 17.8982 V 8.90563 C 17.8993,3.98635 13.8924,0 8.95114,0 Z"
               transform="translate(0.625,0.625)"
               id="shape5"
               style="fill:#ffffff;stroke-width:0.37215495;fill-opacity:1" />
          </g>
          <rect
             height="21.236799pt"
             width="11.159727pt"
             id="shape6"
             x="8.3669996"
             y="30.688999"
             style="fill:#ffffff;stroke-width:0.37215495;fill-opacity:1" />
          <path
             d="M 0,0 H 7.375"
             stroke-miterlimit="2.00000000000"
             transform="translate(35.966,16.12)"
             id="shape7"
             style="fill:none;stroke:#ffffff;stroke-width:4.08026075;stroke-linecap:round;stroke-linejoin:miter;stroke-miterlimit:2;stroke-opacity:1" />
          <path
             d="M 0,0 H 7.375"
             stroke-miterlimit="2.00000000000"
             transform="translate(35.966,30.744)"
             id="shape8"
             style="fill:none;stroke:#ffffff;stroke-width:4.08026075;stroke-linecap:round;stroke-linejoin:miter;stroke-miterlimit:2;stroke-opacity:1" />
          <path
             d="M 0,0 H 7.375"
             stroke-miterlimit="2.00000000000"
             transform="translate(35.966,45.368)"
             id="shape9"
             style="fill:none;stroke:#ffffff;stroke-width:4.08026075;stroke-linecap:round;stroke-linejoin:miter;stroke-miterlimit:2;stroke-opacity:1" />
        </g>
      </g>
    </g>
  </g>
</svg>
