<?xml version="1.0" encoding="UTF-8" standalone="no"?>
<svg
   xmlns:dc="http://purl.org/dc/elements/1.1/"
   xmlns:cc="http://creativecommons.org/ns#"
   xmlns:rdf="http://www.w3.org/1999/02/22-rdf-syntax-ns#"
   xmlns:svg="http://www.w3.org/2000/svg"
   xmlns="http://www.w3.org/2000/svg"
   id="svg1054"
   version="1.1"
   viewBox="0 0 132.29166 132.29167"
   height="500"
   width="500">
  <defs
     id="defs1048" />
  <metadata
     id="metadata1051">
    <rdf:RDF>
      <cc:Work
         rdf:about="">
        <dc:format>image/svg+xml</dc:format>
        <dc:type
           rdf:resource="http://purl.org/dc/dcmitype/StillImage" />
        <dc:title></dc:title>
      </cc:Work>
    </rdf:RDF>
  </metadata>
  <g
     transform="matrix(0.32088974,0,0,0.32088974,0.21111797,50.260327)"
     id="ic_x5F_03_Photovoltaik-Freifl채chenanlage__x28_nicht_nachgef체hrt_x29_"
     style="fill:none;stroke-width:0.82453036">
    <g
       id="ic_x5F_16_Laufwasserkraftwerk"
       transform="matrix(1.7595667,0,0,1.7595667,-16.869078,-151.83647)"
       style="fill:none;stroke-width:0.55775899">
      <g
         transform="matrix(0.70232166,0,0,0.70228163,6.4050223,76.277489)"
         id="ic_x5F_62_Leitung_f체r_W채rme"
         style="fill:none;stroke-width:0.37215495">
        <g
           style="stroke-width:0.22841777"
           transform="matrix(1.096622,0,0,1.096504,-80.499479,-226.82357)"
           id="g3077">
          <g
             id="group1"
             transform="translate(108.63658,101.63867)"
             style="fill:none;stroke-width:0.22841777">
            <path
               id="shape1"
               transform="translate(90.1605,46.0453)"
               d="M 66.7276,258.17 0,191.474 79.896,114.936 57.4227,108.547 10.8599,50.7221 12.341,31.4897 43.1849,0"
               style="fill:none;stroke:#ffffff;stroke-width:3.04238105;stroke-linecap:round;stroke-linejoin:round;stroke-opacity:1" />
            <path
               id="shape2"
               transform="translate(74.2855,46.0453)"
               d="M 36.545,0 67.3377,30.6909 68.838,50.7415 22.2828,108.418 0,114.744 79.3991,191.551 10.7544,257.556"
               style="fill:none;stroke:#ffffff;stroke-width:3.04238105;stroke-linecap:round;stroke-linejoin:round;stroke-opacity:1" />
            <path
               id="shape3"
               transform="translate(42.0055,76.7903)"
               d="M 0,19.944 H 159.988 L 99.8683,0 60.5017,0.754942 Z"
               style="fill:none;stroke:#ffffff;stroke-width:4.86781025;stroke-linecap:round;stroke-linejoin:round;stroke-opacity:1" />
            <path
               id="shape4"
               transform="translate(85.0805,5.06533)"
               d="M 0,299.395 17.451,72.7145 36.9676,0 56.8686,72.0232 73.9361,299.395 Z"
               style="fill:none;stroke:#ffffff;stroke-width:4.86781025;stroke-linecap:round;stroke-linejoin:round;stroke-opacity:1" />
            <path
               id="shape5"
               transform="translate(5.08254,155.762)"
               d="M 0,25.7524 H 233.928 L 142.592,0 H 91.6049 Z"
               style="fill:none;stroke:#ffffff;stroke-width:4.86781025;stroke-linecap:round;stroke-linejoin:round;stroke-opacity:1" />
          </g>
          <path
             id="shape6"
             d="m 117.88308,238.648 c 14.7859,-3.3162 32.7787,-30.854 32.7787,-30.854 0,0 17.5135,27.5378 32.2993,30.854"
             style="fill:none;stroke:#ffffff;stroke-width:1.52119052;stroke-linecap:round;stroke-linejoin:round;stroke-opacity:1" />
          <path
             id="shape7"
             d="m 278.16488,238.648 c 14.7859,-3.3162 32.7777,-30.854 32.7777,-30.854 0,0 17.5135,27.5378 32.3003,30.854"
             style="fill:none;stroke:#ffffff;stroke-width:1.52119052;stroke-linecap:round;stroke-linejoin:round;stroke-opacity:1" />
          <path
             id="shape8"
             d="m 310.92288,322.882 c 14.7856,-3.3161 32.7772,-30.852 32.7772,-30.852 0,0 17.5142,27.5359 32.2988,30.852"
             style="fill:none;stroke:#ffffff;stroke-width:1.52119052;stroke-linecap:round;stroke-linejoin:round;stroke-opacity:1" />
          <path
             id="shape9"
             d="m 85.12512,322.882 c 14.7869,-3.3161 32.7777,-30.852 32.7777,-30.852 0,0 17.5135,27.5359 32.3003,30.852"
             style="fill:none;stroke:#ffffff;stroke-width:1.52119052;stroke-linecap:round;stroke-linejoin:round;stroke-opacity:1" />
        </g>
      </g>
    </g>
  </g>
</svg>
