<?xml version="1.0" encoding="UTF-8" standalone="no"?>
<svg
   xmlns:dc="http://purl.org/dc/elements/1.1/"
   xmlns:cc="http://creativecommons.org/ns#"
   xmlns:rdf="http://www.w3.org/1999/02/22-rdf-syntax-ns#"
   xmlns:svg="http://www.w3.org/2000/svg"
   xmlns="http://www.w3.org/2000/svg"
   width="500"
   height="500"
   viewBox="0 0 132.29166 132.29167"
   version="1.1"
   id="svg1054">
  <defs
     id="defs1048" />
  <metadata
     id="metadata1051">
    <rdf:RDF>
      <cc:Work
         rdf:about="">
        <dc:format>image/svg+xml</dc:format>
        <dc:type
           rdf:resource="http://purl.org/dc/dcmitype/StillImage" />
        <dc:title></dc:title>
      </cc:Work>
    </rdf:RDF>
  </metadata>
  <g
     style="fill:none;stroke-width:0.82453036"
     id="ic_x5F_03_Photovoltaik-Freiflächenanlage__x28_nicht_nachgeführt_x29_"
     transform="matrix(0.32088974,0,0,0.32088974,0.21111797,33.326983)">
    <g
       style="fill:none;stroke-width:0.55775899"
       transform="matrix(1.7595667,0,0,1.7595667,-16.869078,-151.83647)"
       id="ic_x5F_16_Laufwasserkraftwerk">
      <g
         transform="matrix(0.75557175,0,0,0.7572401,8.878526,68.394288)"
         id="ic_x5F_80_Haushalt_als_Stromverbraucher"
         style="fill:none">
        <g
           transform="matrix(0.74101282,0,0,0.73938022,53.672072,12.031946)"
           id="ic_x5F_81_Industrieller_Stromverbraucher"
           style="fill:none">
          <g
             id="g1935"
             style="fill:none;stroke:none">
            <g
               id="polygon1945"
               style="fill:none;stroke:none">
              <path
                 d="M -71.49029,219.1154 V 71.343729 L 14.693186,114.03101 V 71.343729 L 100.87666,114.03101 V 71.323563 l 85.89986,42.790427 3.29833,-120.5763563 h 31.03689 L 224.79935,219.1154 Z"
                 id="shape2"
                 style="fill:#ffffff;stroke:#ffffff;stroke-width:0.68545622;stroke-opacity:1;fill-opacity:1" />
            </g>
          </g>
          <path
             d="m 298.16223,134.55301 -11.40328,42.01791 14.80799,-6.78275 v 16.35615 l -3.93,-0.93261 3.27578,13.16465 7.20949,-11.83228 -4.06502,-0.0111 8.12631,-29.10869 -18.21634,10.23836 14.41641,-33.10961 z"
             id="shape4"
             style="fill:#ffffff;stroke-width:0.68545622;fill-opacity:1" />
          <g
             transform="matrix(1.2357914,0,0,1.2221403,251.32758,118.35109)"
             id="group1"
             style="fill:none">
            <path
               d="m 38.2516,4.96774 c 18.3528,0 33.2839,14.93106 33.2839,33.28386 0,18.3528 -14.9311,33.2839 -33.2839,33.2839 C 19.8988,71.5355 4.96774,56.6044 4.96774,38.2516 4.96774,19.8988 19.8988,4.96774 38.2516,4.96774 M 38.2516,0 C 17.1258,0 0,17.1248 0,38.2516 0,59.3774 17.1258,76.5032 38.2516,76.5032 59.3774,76.5032 76.5032,59.3774 76.5032,38.2516 76.5032,17.1248 59.3774,0 38.2516,0 Z"
               transform="translate(0.625,0.625)"
               id="shape5"
               style="fill:#ffffff;fill-opacity:1" />
          </g>
          <path
             d="M 252.15185,167.26237 H 216.31389"
             stroke-miterlimit="2.00000000000"
             id="shape6"
             style="fill:none;stroke:#ffffff;stroke-width:6.14473438;stroke-linecap:butt;stroke-linejoin:miter;stroke-miterlimit:2;stroke-opacity:1" />
        </g>
      </g>
    </g>
  </g>
</svg>
