<?xml version="1.0" encoding="UTF-8" standalone="no"?>
<svg
   xmlns:dc="http://purl.org/dc/elements/1.1/"
   xmlns:cc="http://creativecommons.org/ns#"
   xmlns:rdf="http://www.w3.org/1999/02/22-rdf-syntax-ns#"
   xmlns:svg="http://www.w3.org/2000/svg"
   xmlns="http://www.w3.org/2000/svg"
   width="500"
   height="500"
   viewBox="0 0 132.29166 132.29167"
   version="1.1"
   id="svg1054">
  <defs
     id="defs1048" />
  <metadata
     id="metadata1051">
    <rdf:RDF>
      <cc:Work
         rdf:about="">
        <dc:format>image/svg+xml</dc:format>
        <dc:type
           rdf:resource="http://purl.org/dc/dcmitype/StillImage" />
        <dc:title></dc:title>
      </cc:Work>
    </rdf:RDF>
  </metadata>
  <g
     style="fill:none;stroke-width:0.82453036"
     id="ic_x5F_03_Photovoltaik-Freiflächenanlage__x28_nicht_nachgeführt_x29_"
     transform="matrix(0.32088974,0,0,0.32088974,0.21111797,33.326983)">
    <g
       style="fill:none;stroke-width:0.55775899"
       transform="matrix(1.7595667,0,0,1.7595667,-16.869078,-151.83647)"
       id="ic_x5F_16_Laufwasserkraftwerk">
      <g
         transform="matrix(0.75557175,0,0,0.7572401,8.878526,68.394288)"
         id="ic_x5F_80_Haushalt_als_Stromverbraucher"
         style="fill:none">
        <path
           d="M 9.22894,0 0,34.3796 11.9851,28.8307 V 42.2129 L 8.80286,41.4508 11.4547,52.2226 17.2879,42.54 13.9994,42.5329 20.5754,18.7141 5.83512,27.0915 17.5004,0 Z"
           transform="translate(262.08,126.711)"
           id="shape1"
           style="fill:#002e4f;fill-opacity:1" />
        <g
           transform="translate(233.41,113.453)"
           id="group1"
           style="fill:none">
          <path
             d="m 38.2516,4.96774 c 18.3528,0 33.2839,14.93106 33.2839,33.28386 0,18.3528 -14.9311,33.2839 -33.2839,33.2839 C 19.8988,71.5355 4.96774,56.6044 4.96774,38.2516 4.96774,19.8988 19.8988,4.96774 38.2516,4.96774 M 38.2516,0 C 17.1258,0 0,17.1248 0,38.2516 0,59.3774 17.1258,76.5032 38.2516,76.5032 59.3774,76.5032 76.5032,59.3774 76.5032,38.2516 76.5032,17.1248 59.3774,0 38.2516,0 Z"
             transform="translate(0.625,0.625)"
             id="shape2"
             style="fill:#002e4f;fill-opacity:1" />
        </g>
        <path
           d="M 64,0 H 0"
           stroke-miterlimit="2.00000000000"
           transform="translate(170.035,155.078)"
           id="shape3"
           style="fill:none;stroke:#002e4f;stroke-width:5;stroke-linecap:butt;stroke-linejoin:miter;stroke-miterlimit:2;stroke-opacity:1" />
        <path
           d="M 29.9064,191.029 H 169.763 V 100.924 H 201.87 L 101.374,0 0,101.808 h 29.9064 z"
           transform="translate(0.442884,0.441002)"
           id="shape4"
           style="fill:#002e4f;fill-opacity:1" />
        <path
           d="M 23.5111,41.5059 V 0 H 0 v 18.7765"
           transform="translate(146.035,15.578)"
           id="shape5"
           style="fill:#002e4f;fill-opacity:1" />
      </g>
    </g>
  </g>
</svg>
