<?xml version="1.0" encoding="UTF-8" standalone="no"?>
<svg
   xmlns:dc="http://purl.org/dc/elements/1.1/"
   xmlns:cc="http://creativecommons.org/ns#"
   xmlns:rdf="http://www.w3.org/1999/02/22-rdf-syntax-ns#"
   xmlns:svg="http://www.w3.org/2000/svg"
   xmlns="http://www.w3.org/2000/svg"
   xmlns:sodipodi="http://sodipodi.sourceforge.net/DTD/sodipodi-0.dtd"
   xmlns:inkscape="http://www.inkscape.org/namespaces/inkscape"
   id="svg1054"
   version="1.1"
   viewBox="0 0 132.29166 132.29167"
   height="500"
   width="500"
   sodipodi:docname="Verbraucher_Strom_allgemein_b.svg"
   inkscape:version="0.92.3 (2405546, 2018-03-11)">
  <sodipodi:namedview
     pagecolor="#ffffff"
     bordercolor="#666666"
     borderopacity="1"
     objecttolerance="10"
     gridtolerance="10"
     guidetolerance="10"
     inkscape:pageopacity="0"
     inkscape:pageshadow="2"
     inkscape:window-width="1920"
     inkscape:window-height="1031"
     id="namedview14"
     showgrid="false"
     inkscape:zoom="1.3350176"
     inkscape:cx="179.35788"
     inkscape:cy="276.63858"
     inkscape:window-x="0"
     inkscape:window-y="25"
     inkscape:window-maximized="1"
     inkscape:current-layer="layer1" />
  <defs
     id="defs1048" />
  <metadata
     id="metadata1051">
    <rdf:RDF>
      <cc:Work
         rdf:about="">
        <dc:format>image/svg+xml</dc:format>
        <dc:type
           rdf:resource="http://purl.org/dc/dcmitype/StillImage" />
        <dc:title></dc:title>
      </cc:Work>
    </rdf:RDF>
  </metadata>
  <g
     transform="matrix(0.32088974,0,0,0.32088974,0.21111797,33.326983)"
     id="ic_x5F_03_Photovoltaik-Freiflächenanlage__x28_nicht_nachgeführt_x29_"
     style="fill:none;stroke-width:0.82453036">
    <g
       id="ic_x5F_16_Laufwasserkraftwerk"
       transform="matrix(1.7595667,0,0,1.7595667,-16.869078,-151.83647)"
       style="fill:none;stroke-width:0.55775899">
      <g
         style="fill:none"
         id="ic_x5F_80_Haushalt_als_Stromverbraucher"
         transform="matrix(0.75557175,0,0,0.7572401,8.878526,68.394288)">
        <g
           style="fill:none"
           id="ic_x5F_81_Industrieller_Stromverbraucher"
           transform="matrix(0.74101282,0,0,0.73938022,53.672072,12.031946)">
          <g
             transform="matrix(0.83694993,0,0,0.83694994,-387.23069,-0.0622627)"
             id="layer1">
            <g
               style="fill:none"
               id="ic_x5F_76_Elektrische_Last"
               transform="matrix(1.4972461,0,0,1.4972461,369.73945,1.7480259)">
              <path
                 style="fill:#000000"
                 inkscape:connector-curvature="0"
                 id="shape2"
                 transform="translate(224.386,30.017)"
                 d="M 21.7743,0 0,79.488 28.2787,66.6588 V 97.5944 L 20.7714,95.834 27.0293,120.737 40.7935,98.3537 33.0327,98.3356 48.5462,43.2673 13.7651,62.6335 41.2944,0 Z" />
              <g
                 style="fill:none"
                 id="group1"
                 transform="translate(158.51)">
                <path
                   style="fill:#000000"
                   inkscape:connector-curvature="0"
                   id="shape3"
                   transform="translate(0.625,0.625)"
                   d="m 89.7775,9.02029 c 44.5305,0 80.7575,36.22751 80.7575,80.75871 0,44.529 -36.227,80.757 -80.7575,80.757 -44.53,0 -80.75726,-36.226 -80.75726,-80.757 0,-44.5312 36.22726,-80.75871 80.75726,-80.75871 M 89.7775,0 C 40.1952,0 0,40.1944 0,89.779 c 0,49.582 40.1952,89.777 89.7775,89.777 49.5825,0 89.7775,-40.194 89.7775,-89.777 C 179.555,40.1944 139.36,0 89.7775,0 Z" />
              </g>
              <g
                 style="fill:none"
                 id="group2"
                 transform="translate(0,107.348)">
                <g
                   style="fill:none"
                   id="group3"
                   transform="translate(20.6024,9.66339)">
                  <path
                     style="fill:#000000"
                     inkscape:connector-curvature="0"
                     id="shape4"
                     transform="translate(0.590069,0.621454)"
                     d="m 15.9737,1.76543 c 1.2416,-0.71751 3.424,-1.423155 4.8496,-1.571607 0,0 21.5532,-2.221843 27.6711,8.379637 6.1179,10.60054 -6.5819,28.16244 -6.5819,28.16244 -0.8399,1.1619 -2.5435,2.6998 -3.7851,3.4164 l -14.6715,8.4736 c -1.2416,0.7175 -2.8443,0.288 -3.5606,-0.954 L 0.347505,13.8 C -0.369748,12.558 0.0596141,10.9556 1.30121,10.2381 Z" />
                </g>
                <g
                   style="fill:none"
                   id="group4">
                  <path
                     style="fill:none;stroke:#000000;stroke-width:7;stroke-linecap:round;stroke-linejoin:round"
                     inkscape:connector-curvature="0"
                     id="shape5"
                     transform="translate(19.8797,51.3797)"
                     d="M 17.1815,0 0,10.024" />
                  <path
                     style="fill:none;stroke:#000000;stroke-width:7;stroke-linecap:round;stroke-linejoin:round"
                     inkscape:connector-curvature="0"
                     id="shape6"
                     transform="translate(69.2277,8.28668)"
                     d="M 17.1834,0 0,10.022" />
                  <path
                     style="fill:none;stroke:#000000;stroke-width:7;stroke-linecap:round;stroke-linejoin:round"
                     inkscape:connector-curvature="0"
                     id="shape7"
                     transform="translate(8.28668,31.3017)"
                     d="M 17.1834,0 0,10.022" />
                </g>
              </g>
              <path
                 style="fill:none;stroke:#000000;stroke-width:7;stroke-linecap:round;stroke-linejoin:round"
                 inkscape:connector-curvature="0"
                 id="shape8"
                 transform="translate(87.0757,111.889)"
                 d="m 0,3.64534 c 13.9192,-8.13056 35.551,-1.98848 43.3999,11.76846 7.85,13.756 29.1567,20.0869 43.401,11.7665" />
            </g>
          </g>
        </g>
      </g>
    </g>
  </g>
</svg>
