<?xml version="1.0" encoding="UTF-8" standalone="no"?>
<svg
   xmlns:dc="http://purl.org/dc/elements/1.1/"
   xmlns:cc="http://creativecommons.org/ns#"
   xmlns:rdf="http://www.w3.org/1999/02/22-rdf-syntax-ns#"
   xmlns:svg="http://www.w3.org/2000/svg"
   xmlns="http://www.w3.org/2000/svg"
   width="500"
   height="500"
   viewBox="0 0 132.29166 132.29167"
   version="1.1"
   id="svg1054">
  <defs
     id="defs1048" />
  <metadata
     id="metadata1051">
    <rdf:RDF>
      <cc:Work
         rdf:about="">
        <dc:format>image/svg+xml</dc:format>
        <dc:type
           rdf:resource="http://purl.org/dc/dcmitype/StillImage" />
        <dc:title></dc:title>
      </cc:Work>
    </rdf:RDF>
  </metadata>
  <g
     style="fill:none;stroke-width:0.82453036"
     id="ic_x5F_03_Photovoltaik-Freifl채chenanlage__x28_nicht_nachgef체hrt_x29_"
     transform="matrix(0.32088974,0,0,0.32088974,0.21111797,33.326983)">
    <g
       style="fill:none;stroke-width:0.55775899"
       transform="matrix(1.7595667,0,0,1.7595667,-16.869078,-151.83647)"
       id="ic_x5F_16_Laufwasserkraftwerk">
      <g
         style="fill:none;stroke-width:0.37215495"
         id="ic_x5F_62_Leitung_f체r_W채rme"
         transform="matrix(0.70232166,0,0,0.70228163,6.4050223,76.277489)">
        <g
           id="g3077"
           transform="matrix(1.096622,0,0,1.096504,-80.499479,-226.82357)"
           style="stroke-width:0.22841777">
          <g
             style="fill:none;stroke-width:0.16446079"
             id="ic_x5F_68_Auto"
             transform="matrix(0.84503637,0,0,0.84517547,76.524699,197.03307)">
            <g
               style="fill:none;stroke-width:0.16446079"
               id="layer1_5_">
              <path
                 style="fill:#000000;fill-opacity:1;stroke-width:0.16446079"
                 id="path25345_5_"
                 transform="translate(273.509,82.8464)"
                 d="M 2.14425e-6,28.058 C 0.00599521,12.5557 12.5725,-0.00599295 28.0705,2.14498e-6 43.5696,0.00699642 56.1241,12.5787 56.1201,28.08 c 0,0.008 0,0.015 0,0.021 C 56.1141,43.6053 43.5456,56.165 28.0486,56.158 12.5515,56.153 -0.00599092,43.5823 2.14425e-6,28.079 c 0,-0.007 0,-0.012 0,-0.021 z" />
              <path
                 style="fill:#000000;fill-opacity:1;stroke-width:0.22841777"
                 d="m 285.5332,153.30664 c -0.25787,-10e-4 -0.52378,0.007 -0.79687,0.0234 H 95.986328 l -93.8066405,74.6582 c -1.0361111,2.19403 -1.55976562,3.87575 -1.82226562,5.29297 L 0,299.43945 c 1.7430556,3.79167 3.7947916,7.02774 7.453125,7.36524 h 21.773437 c 0,-64.68056 95.400388,-64.81278 95.400388,0 h 245.10157 c 0,-64.42986 96.12695,-64.67639 96.12695,0 h 26.5625 c 2.2625,-1.05972 4.30074,-0.0728 7.29101,-7.69922 L 500,251.5293 c -1.54444,-4.3282 -3.47313,-5.97654 -5.39258,-7.65821 l -137.9668,-22.97265 -63.08984,-63.35352 c -1.94661,-2.2592 -4.1495,-4.22311 -8.01758,-4.23828 z m 1.97657,19.87305 c 1.41366,0.0663 2.16773,1.11302 3.09961,1.90039 l 37.15039,37.99414 c 2.07972,3.61472 1.40333,6.58827 -3.59375,8.54883 H 202.95898 v -48.40821 h 83.90235 c 0.23139,-0.0341 0.44648,-0.0446 0.64844,-0.0352 z m -170.89844,0.008 c 0.20186,-0.009 0.41731,0.001 0.64844,0.0352 h 70.56054 v 48.40625 H 67.564453 c -5.690639,-1.12861 1.798057,-8.77005 5.525391,-14.35352 l 40.421876,-32.1875 c 0.93272,-0.78735 1.68659,-1.83408 3.09961,-1.90039 z"
                 transform="matrix(0.72,0,0,0.72000001,0.62499074,-109.7563)"
                 id="path24454_5_" />
              <path
                 style="fill:#000000;fill-opacity:1;stroke-width:0.16446079"
                 id="path25343_5_"
                 transform="translate(28.209,82.8364)"
                 d="M 1.48915e-6,28.056 C 0.00599445,12.5537 12.5722,-0.00699135 28.069,2.91958e-6 43.5658,0.00399965 56.1231,12.5757 56.1181,28.078 c 0,0.007 0,0.015 0,0.021 C 56.1111,43.6013 43.5439,56.163 28.0491,56.158 12.5523,56.149 -0.00499265,43.5803 1.48915e-6,28.077 c 0,-0.007 0,-0.014 0,-0.021 z" />
            </g>
          </g>
        </g>
      </g>
    </g>
  </g>
  <g
     transform="matrix(0.61335113,0,0,0.61335113,6.1572375,88.055986)"
     id="group1"
     style="fill:none">
    <path
       d="M 0,50.4144 V 6.47562 H 11.4022 L 12.3511,0 h 8.5624 l 0.98,6.47562 H 60.7214 L 61.7024,0 h 8.5945 l 0.98,6.47562 H 82.8363 V 50.4154 H 0 Z M 59.1171,25.7815 h 4.1875 v 4.0655 h 5.3319 v -4.0655 h 3.9891 V 20.505 H 68.6365 V 16.3988 H 63.3046 V 20.505 H 59.1171 Z M 10.0524,25.7805 H 23.5609 V 20.5 H 10.0524 Z"
       transform="translate(0.625,0.625)"
       id="shape2"
       style="fill:#000000;fill-opacity:1" />
  </g>
  <g
     transform="matrix(0.61335113,0,0,0.61335113,72.458196,85.151156)"
     id="group2"
     style="fill:none">
    <path
       id="shape3"
       d="m 28.440164,11.999639 -5.187433,9.052098 H 12.862699 v 24.940458 l 8.919826,0.166821 8.87938,10.092618 H 65.955324 L 76.254363,46.194402 h 5.382055 v 9.051256 h 3.935441 l 3.041518,-8.887805 V 25.03773 l -3.26142,-8.683075 -3.715539,0.05982 v 8.659484 H 76.652874 V 19.039786 H 68.41297 l -6.629837,-7.040147 z m 20.8719,6.382134 -7.364522,17.450398 9.307385,-5.396377 -4.151969,15.344084 2.075984,0.0084 -3.683522,6.237223 -1.674941,-6.939887 2.009423,0.491192 v -8.619042 l -7.565883,3.573152 5.826068,-22.146639 z"
       style="fill:#000000;fill-opacity:1;stroke-width:1" />
    <path
       d="M 4.8627467,17 V 50"
       stroke-miterlimit="2.00000000000"
       id="shape4"
       style="fill:#000000;fill-opacity:1;stroke:#000000;stroke-width:4;stroke-linecap:butt;stroke-linejoin:miter;stroke-miterlimit:2;stroke-opacity:1" />
    <path
       d="m 61.862747,4 h -34"
       stroke-miterlimit="2.00000000000"
       id="shape5"
       style="fill:#000000;fill-opacity:1;stroke:#000000;stroke-width:4;stroke-linecap:butt;stroke-linejoin:miter;stroke-miterlimit:2;stroke-opacity:1" />
    <path
       d="M 12.862747,33 H 4.8627467"
       stroke-miterlimit="2.00000000000"
       id="shape6"
       style="fill:#000000;fill-opacity:1;stroke:#000000;stroke-width:4;stroke-linecap:butt;stroke-linejoin:miter;stroke-miterlimit:2;stroke-opacity:1" />
    <path
       d="M 45.862747,12 V 4"
       stroke-miterlimit="2.00000000000"
       id="shape7"
       style="fill:#000000;fill-opacity:1;stroke:#000000;stroke-width:4;stroke-linecap:butt;stroke-linejoin:miter;stroke-miterlimit:2;stroke-opacity:1" />
  </g>
</svg>
