<?xml version="1.0" encoding="UTF-8" standalone="no"?>
<svg
   xmlns:dc="http://purl.org/dc/elements/1.1/"
   xmlns:cc="http://creativecommons.org/ns#"
   xmlns:rdf="http://www.w3.org/1999/02/22-rdf-syntax-ns#"
   xmlns:svg="http://www.w3.org/2000/svg"
   xmlns="http://www.w3.org/2000/svg"
   id="svg1054"
   version="1.1"
   viewBox="0 0 132.29166 132.29167"
   height="500"
   width="500">
  <defs
     id="defs1048" />
  <metadata
     id="metadata1051">
    <rdf:RDF>
      <cc:Work
         rdf:about="">
        <dc:format>image/svg+xml</dc:format>
        <dc:type
           rdf:resource="http://purl.org/dc/dcmitype/StillImage" />
        <dc:title></dc:title>
      </cc:Work>
    </rdf:RDF>
  </metadata>
  <g
     transform="matrix(0.32088974,0,0,0.32088974,0.21111797,50.260327)"
     id="ic_x5F_03_Photovoltaik-Freifl채chenanlage__x28_nicht_nachgef체hrt_x29_"
     style="fill:none;stroke-width:0.82453036">
    <g
       id="ic_x5F_16_Laufwasserkraftwerk"
       transform="matrix(1.7595667,0,0,1.7595667,-16.869078,-151.83647)"
       style="fill:none;stroke-width:0.55775899">
      <g
         transform="matrix(0.70232166,0,0,0.70228163,6.4050223,76.277489)"
         id="ic_x5F_62_Leitung_f체r_W채rme"
         style="fill:none;stroke-width:0.37215495">
        <g
           style="stroke-width:0.22841777"
           transform="matrix(1.096622,0,0,1.096504,-80.499479,-226.82357)"
           id="g3077">
          <g
             transform="matrix(0.84503637,0,0,0.84517547,76.524699,197.03307)"
             id="ic_x5F_68_Auto"
             style="fill:none;stroke-width:0.16446079">
            <g
               id="layer1_5_"
               style="fill:none;stroke-width:0.16446079">
              <path
                 d="M 2.14425e-6,28.058 C 0.00599521,12.5557 12.5725,-0.00599295 28.0705,2.14498e-6 43.5696,0.00699642 56.1241,12.5787 56.1201,28.08 c 0,0.008 0,0.015 0,0.021 C 56.1141,43.6053 43.5456,56.165 28.0486,56.158 12.5515,56.153 -0.00599092,43.5823 2.14425e-6,28.079 c 0,-0.007 0,-0.012 0,-0.021 z"
                 transform="translate(273.509,82.8464)"
                 id="path25345_5_"
                 style="fill:#ffffff;stroke-width:0.16446079;fill-opacity:1" />
              <path
                 id="path24454_5_"
                 transform="matrix(0.72,0,0,0.72000001,0.62499074,-109.7563)"
                 d="M 285.5332 153.30664 C 285.27533 153.30563 285.00942 153.31329 284.73633 153.33008 L 95.986328 153.33008 L 2.1796875 227.98828 C 1.1435764 230.18231 0.61992188 231.86403 0.35742188 233.28125 L 0 299.43945 C 1.7430556 303.23112 3.7947916 306.46719 7.453125 306.80469 L 29.226562 306.80469 C 29.226562 242.12413 124.62695 241.99191 124.62695 306.80469 L 369.72852 306.80469 C 369.72852 242.37483 465.85547 242.1283 465.85547 306.80469 L 492.41797 306.80469 C 494.68047 305.74497 496.71871 306.73186 499.70898 299.10547 L 500 251.5293 C 498.45556 247.2011 496.52687 245.55276 494.60742 243.87109 L 356.64062 220.89844 L 293.55078 157.54492 C 291.60417 155.28572 289.40128 153.32181 285.5332 153.30664 z M 287.50977 173.17969 C 288.92343 173.246 289.6775 174.29271 290.60938 175.08008 L 327.75977 213.07422 C 329.83949 216.68894 329.1631 219.66249 324.16602 221.62305 L 202.95898 221.62305 L 202.95898 173.21484 L 286.86133 173.21484 C 287.09272 173.1807 287.30781 173.17021 287.50977 173.17969 z M 116.61133 173.1875 C 116.81319 173.17803 117.02864 173.18851 117.25977 173.22266 L 187.82031 173.22266 L 187.82031 221.62891 L 67.564453 221.62891 C 61.873814 220.5003 69.36251 212.85886 73.089844 207.27539 L 113.51172 175.08789 C 114.44444 174.30054 115.19831 173.25381 116.61133 173.1875 z "
                 style="fill:#ffffff;stroke-width:0.22841777;fill-opacity:1" />
              <path
                 d="M 1.48915e-6,28.056 C 0.00599445,12.5537 12.5722,-0.00699135 28.069,2.91958e-6 43.5658,0.00399965 56.1231,12.5757 56.1181,28.078 c 0,0.007 0,0.015 0,0.021 C 56.1111,43.6013 43.5439,56.163 28.0491,56.158 12.5523,56.149 -0.00499265,43.5803 1.48915e-6,28.077 c 0,-0.007 0,-0.014 0,-0.021 z"
                 transform="translate(28.209,82.8364)"
                 id="path25343_5_"
                 style="fill:#ffffff;stroke-width:0.16446079;fill-opacity:1" />
            </g>
          </g>
        </g>
      </g>
    </g>
  </g>
</svg>
