<?xml version="1.0" encoding="UTF-8" standalone="no"?>
<svg
   xmlns:dc="http://purl.org/dc/elements/1.1/"
   xmlns:cc="http://creativecommons.org/ns#"
   xmlns:rdf="http://www.w3.org/1999/02/22-rdf-syntax-ns#"
   xmlns:svg="http://www.w3.org/2000/svg"
   xmlns="http://www.w3.org/2000/svg"
   width="500"
   height="500"
   viewBox="0 0 132.29166 132.29167"
   version="1.1"
   id="svg1054">
  <defs
     id="defs1048" />
  <metadata
     id="metadata1051">
    <rdf:RDF>
      <cc:Work
         rdf:about="">
        <dc:format>image/svg+xml</dc:format>
        <dc:type
           rdf:resource="http://purl.org/dc/dcmitype/StillImage" />
        <dc:title></dc:title>
      </cc:Work>
    </rdf:RDF>
  </metadata>
  <g
     style="fill:none;stroke-width:0.82453036"
     id="ic_x5F_03_Photovoltaik-Freiflächenanlage__x28_nicht_nachgeführt_x29_"
     transform="matrix(0.32088974,0,0,0.32088974,0.21111797,33.326983)">
    <g
       style="fill:none;stroke-width:0.55775899"
       transform="matrix(1.7595667,0,0,1.7595667,-16.869078,-151.83647)"
       id="ic_x5F_16_Laufwasserkraftwerk">
      <g
         transform="matrix(0.75557175,0,0,0.7572401,8.878526,68.394288)"
         id="ic_x5F_80_Haushalt_als_Stromverbraucher"
         style="fill:none">
        <g
           transform="matrix(0.74101282,0,0,0.73938022,53.672072,12.031946)"
           id="ic_x5F_81_Industrieller_Stromverbraucher"
           style="fill:none">
          <g
             id="layer1"
             transform="matrix(0.83694993,0,0,0.83694994,-387.23069,-0.0622627)">
            <g
               transform="translate(560.0883,-90.646774)"
               id="ic_x5F_108_Wärme"
               style="fill:none">
              <g
                 id="group1"
                 style="fill:none">
                <path
                   d="m 140.4152,385.69402 c 0,54.03037 -43.80953,97.81771 -97.831569,97.81771 -54.041741,0 -97.830191,-43.78734 -97.830191,-97.81771 0,-54.03258 43.78984,-97.82602 97.830191,-97.82602 54.023429,0 97.831569,43.79483 97.831569,97.82602 z"
                   id="shape1"
                   style="fill:#002e4f;stroke-width:0.77350926;fill-opacity:1" />
                <g
                   transform="matrix(1.3868164,0,0,1.3868164,-10.64377,-17.355029)"
                   id="group2"
                   style="fill:none">
                  <path
                     d="m 37.4615,19.4045 c 9.944,0 18.0352,8.0909 18.0352,18.0369 V 220.112 H 19.4133 V 37.4414 c -0.001,-9.946 8.0962,-18.0369 18.0482,-18.0369 M 37.4615,0 C 16.7809,0 0,16.7602 0,37.4414 V 239.518 H 74.91 V 37.4414 C 74.91,16.7602 58.1421,0 37.4615,0 Z"
                     transform="translate(0.625,0.625)"
                     id="shape2"
                     style="fill:#002e4f;fill-opacity:1" />
                </g>
                <rect
                   height="124.7347pt"
                   width="70.693459pt"
                   id="shape3"
                   x="-9.7783966"
                   y="160.09506"
                   style="fill:#002e4f;stroke-width:0.71318203;fill-opacity:1" />
                <path
                   d="m 152.3335,74.521557 h 43.31305"
                   stroke-miterlimit="2.00000000000"
                   id="shape4"
                   style="fill:none;stroke:#002e4f;stroke-width:35.91798782;stroke-linecap:round;stroke-linejoin:miter;stroke-miterlimit:2;stroke-opacity:1" />
                <path
                   d="m 152.3335,160.41819 h 43.31305"
                   stroke-miterlimit="2.00000000000"
                   id="shape5"
                   style="fill:none;stroke:#002e4f;stroke-width:35.91798782;stroke-linecap:round;stroke-linejoin:miter;stroke-miterlimit:2;stroke-opacity:1" />
                <path
                   d="m 152.3335,246.31759 h 43.31305"
                   stroke-miterlimit="2.00000000000"
                   id="shape6"
                   style="fill:none;stroke:#002e4f;stroke-width:35.91798782;stroke-linecap:round;stroke-linejoin:miter;stroke-miterlimit:2;stroke-opacity:1" />
              </g>
            </g>
          </g>
        </g>
      </g>
    </g>
  </g>
</svg>
