<?xml version="1.0" encoding="UTF-8" standalone="no"?>
<svg
   xmlns:dc="http://purl.org/dc/elements/1.1/"
   xmlns:cc="http://creativecommons.org/ns#"
   xmlns:rdf="http://www.w3.org/1999/02/22-rdf-syntax-ns#"
   xmlns:svg="http://www.w3.org/2000/svg"
   xmlns="http://www.w3.org/2000/svg"
   width="500"
   height="500"
   viewBox="0 0 132.29166 132.29167"
   version="1.1"
   id="svg1054">
  <defs
     id="defs1048" />
  <metadata
     id="metadata1051">
    <rdf:RDF>
      <cc:Work
         rdf:about="">
        <dc:format>image/svg+xml</dc:format>
        <dc:type
           rdf:resource="http://purl.org/dc/dcmitype/StillImage" />
        <dc:title></dc:title>
      </cc:Work>
    </rdf:RDF>
  </metadata>
  <g
     style="fill:none;stroke-width:0.82453036"
     id="ic_x5F_03_Photovoltaik-Freiflächenanlage__x28_nicht_nachgeführt_x29_"
     transform="matrix(0.32088974,0,0,0.32088974,0.21111797,33.326983)">
    <g
       style="fill:none;stroke-width:0.55775899"
       transform="matrix(1.7595667,0,0,1.7595667,-16.869078,-151.83647)"
       id="ic_x5F_16_Laufwasserkraftwerk">
      <g
         transform="matrix(0.75557175,0,0,0.7572401,8.878526,68.394288)"
         id="ic_x5F_80_Haushalt_als_Stromverbraucher"
         style="fill:none">
        <g
           transform="matrix(0.74101282,0,0,0.73938022,53.672072,12.031946)"
           id="ic_x5F_81_Industrieller_Stromverbraucher"
           style="fill:none">
          <g
             id="layer1"
             transform="matrix(0.83694993,0,0,0.83694994,-387.23069,-0.0622627)">
            <g
               transform="translate(560.0883,-90.646774)"
               id="ic_x5F_108_Wärme"
               style="fill:none">
              <g
                 id="group1"
                 style="fill:none">
                <g
                   transform="matrix(1.6892076,0,0,1.6892076,-173.40667,-15.8903)"
                   id="group1-1"
                   style="fill:none">
                  <g
                     transform="translate(243.076,71.0563)"
                     id="group2"
                     style="fill:none">
                    <path
                       d="M 115.653,57.8302 C 115.653,89.7687 89.7613,115.65 57.8275,115.65 25.8886,115.65 0,89.7687 0,57.8302 0,25.8899 25.8868,0 57.8275,0 89.7613,0.00174261 115.653,25.8899 115.653,57.8302 Z"
                       transform="translate(-74.7568,108.935)"
                       id="shape1"
                       style="fill:#ffffff;fill-opacity:1" />
                    <g
                       transform="translate(0,103.635)"
                       id="group3"
                       style="fill:none">
                      <path
                         d="m 57.8275,15.6835 c 23.2363,0 42.1421,18.9072 42.1421,42.1467 0,23.2341 -18.9058,42.1362 -42.1421,42.1362 -23.238,0 -42.1438,-18.9021 -42.1438,-42.1362 C 15.6854,34.589 34.5895,15.6835 57.8275,15.6835 M 57.8275,0 C 25.8886,0 0,25.8882 0,57.8302 0,89.7687 25.8868,115.65 57.8275,115.65 89.7596,115.65 115.653,89.7687 115.653,57.8302 115.653,25.8882 89.7613,0 57.8275,0 Z"
                         transform="translate(-74.7568,5.30148)"
                         id="shape2"
                         style="fill:#ffffff;fill-opacity:1" />
                    </g>
                    <g
                       transform="translate(15.485)"
                       id="group4"
                       style="fill:none">
                      <path
                         d="m 31.1351,15.5832 c 8.4333,0 15.294,6.7562 15.294,15.0604 V 180.456 H 15.8305 V 30.6436 c 0.0018,-8.3042 6.866,-15.0604 15.3046,-15.0604 M 31.1351,0 C 13.9483,0 0,13.7167 0,30.6436 V 196.039 H 62.2631 V 30.6436 C 62.2631,13.7167 48.329,0 31.1351,0 Z"
                         transform="translate(-63.3047,-71.3429)"
                         id="shape3"
                         style="fill:#ffffff;fill-opacity:1" />
                    </g>
                    <rect
                       height="75.282639pt"
                       width="33.995785pt"
                       id="shape4"
                       x="-39.797695"
                       y="33.2551"
                       style="fill:#ffffff;fill-opacity:1;stroke-width:0.65902221" />
                  </g>
                  <path
                     d="M 53.7321,0 0,193.719 69.7831,162.456 v 75.398 L 51.2585,233.563 66.7004,294.255 100.668,239.701 81.5146,239.657 119.806,105.448 33.9693,152.647 101.905,0 Z"
                     transform="rotate(-0.02805631,-620.99147,0.00604175)"
                     id="shape5"
                     style="fill:#ffffff;fill-opacity:1" />
                </g>
              </g>
            </g>
          </g>
        </g>
      </g>
    </g>
  </g>
</svg>
