<?xml version="1.0" encoding="UTF-8" standalone="no"?>
<svg
   xmlns:dc="http://purl.org/dc/elements/1.1/"
   xmlns:cc="http://creativecommons.org/ns#"
   xmlns:rdf="http://www.w3.org/1999/02/22-rdf-syntax-ns#"
   xmlns:svg="http://www.w3.org/2000/svg"
   xmlns="http://www.w3.org/2000/svg"
   width="500"
   height="500"
   viewBox="0 0 132.29166 132.29167"
   version="1.1"
   id="svg1054">
  <defs
     id="defs1048" />
  <metadata
     id="metadata1051">
    <rdf:RDF>
      <cc:Work
         rdf:about="">
        <dc:format>image/svg+xml</dc:format>
        <dc:type
           rdf:resource="http://purl.org/dc/dcmitype/StillImage" />
        <dc:title></dc:title>
      </cc:Work>
    </rdf:RDF>
  </metadata>
  <g
     style="fill:none;stroke-width:0.82453036"
     id="ic_x5F_03_Photovoltaik-Freifl채chenanlage__x28_nicht_nachgef체hrt_x29_"
     transform="matrix(0.32088974,0,0,0.32088974,0.21111797,33.326983)">
    <g
       style="fill:none;stroke-width:0.55775899"
       transform="matrix(1.7595667,0,0,1.7595667,-16.869078,-151.83647)"
       id="ic_x5F_16_Laufwasserkraftwerk">
      <g
         transform="matrix(0.75557175,0,0,0.7572401,8.878526,68.394288)"
         id="ic_x5F_80_Haushalt_als_Stromverbraucher"
         style="fill:none">
        <g
           transform="matrix(0.74101282,0,0,0.73938022,53.672072,12.031946)"
           id="ic_x5F_81_Industrieller_Stromverbraucher"
           style="fill:none">
          <g
             id="layer1"
             transform="matrix(0.83694993,0,0,0.83694994,-387.23069,-0.0622627)">
            <g
               transform="translate(560.0883,-90.646774)"
               id="ic_x5F_108_W채rme"
               style="fill:none">
              <g
                 id="group1"
                 style="fill:none">
                <g
                   transform="matrix(1.6892076,0,0,1.6892076,-173.40667,-15.8903)"
                   id="group1-1"
                   style="fill:none">
                  <g
                     transform="translate(243.076,71.0563)"
                     id="group2"
                     style="fill:none">
                    <g
                       transform="translate(0,103.635)"
                       id="group3"
                       style="fill:none">
                      <g
                         transform="matrix(0.7649128,0,0,0.76491278,-249.37922,-98.265706)"
                         id="ic_x5F_85_W채rmepumpe-Luft"
                         style="fill:none">
                        <path
                           id="shape2"
                           transform="matrix(0.773936,0,0,0.77393601,0.62500036,-100.37692)"
                           d="M 377.47461 126.41016 L 253.88281 249.82227 L 290.34375 249.82227 L 290.34375 357.97656 L 460.85547 357.97656 L 460.85547 248.75 L 500 248.75 L 377.47461 126.41016 z M 433.10742 145.25781 L 433.10742 168.79883 L 460.84375 196.49609 L 460.84375 145.25781 L 433.10742 145.25781 z M 377.47461 160.41016 C 387.67677 160.41016 395.94531 168.84747 395.94531 179.25586 L 395.94531 275.66992 C 405.75592 281.83639 412.28125 292.74907 412.28125 305.19336 C 412.28125 324.44472 396.67577 340.04297 377.42773 340.04297 C 358.17568 340.04297 342.57227 324.44472 342.57227 305.19336 C 342.57227 292.71146 349.13569 281.76954 358.99609 275.61328 L 358.99609 179.25586 C 358.99609 168.84747 367.27523 160.41016 377.47461 160.41016 z M 377.47461 169.99219 C 372.46707 169.99219 368.39062 174.14844 368.39062 179.25586 L 368.39062 271.38477 L 368.48438 271.38477 L 368.48438 281.4375 C 358.88083 285.06506 352.02433 294.33653 352.02539 305.19336 C 352.02539 319.19656 363.42135 330.58984 377.42773 330.58984 C 391.43411 330.58984 402.82812 319.19656 402.82812 305.19336 C 402.82813 294.49162 396.17223 285.32024 386.78516 281.58594 L 386.78516 237.67188 L 386.54883 237.67188 L 386.54883 179.25586 C 386.54883 174.14844 382.47936 169.99219 377.47461 169.99219 z "
                           style="fill:#ffffff;stroke-width:0.77365947;fill-opacity:1" />
                        <g
                           transform="matrix(1.0735155,0,0,1.0735155,264.45969,21.058795)"
                           id="group2-8"
                           style="fill:none">
                          <g
                             transform="translate(-66.962463,-120.19452)"
                             id="group3-5"
                             style="fill:#004000;fill-opacity:1" />
                          <g
                             transform="translate(11.841)"
                             id="group4"
                             style="fill:none" />
                        </g>
                        <g
                           transform="matrix(1.0735155,0,0,1.0735155,-0.04594682,15.691218)"
                           id="group5"
                           style="fill:none">
                          <path
                             d="M 50.75,25.375 C 50.75,11.3608 39.3892,0 25.375,0 11.3608,0 0,11.3608 0,25.375 0,39.3892 11.3608,50.75 25.375,50.75 39.3892,50.75 50.75,39.3892 50.75,25.375"
                             transform="translate(0.625,79.877)"
                             id="shape7"
                             style="fill:#ffffff;fill-opacity:1;stroke:#ffffff;stroke-opacity:1" />
                          <g
                             transform="translate(0,79.251)"
                             id="group6"
                             style="fill:none">
                            <path
                               d="m 25.1289,6.81571 c 10.0977,0 18.313,8.21489 18.313,18.31219 0,10.0954 -8.2153,18.3093 -18.313,18.3093 -10.0977,0 -18.31391,-8.2139 -18.31391,-18.3093 0,-10.0973 8.21621,-18.31219 18.31391,-18.31219 M 25.1289,0 C 11.2494,0 0,11.2489 0,25.1279 c 0,13.879 11.2494,25.125 25.1289,25.125 13.8766,0 25.128,-11.246 25.128,-25.125 C 50.2569,11.2489 39.0055,0 25.1289,0 Z"
                               transform="translate(0.625,0.625)"
                               id="shape8"
                               style="fill:#ffffff;fill-opacity:1" />
                          </g>
                          <g
                             transform="translate(11.841)"
                             id="group7"
                             style="fill:none">
                            <path
                               d="m 13.3214,6.90849 c 3.6081,0 6.5441,2.99549 6.5441,6.67761 V 80.0058 H 6.77339 V 13.5861 c 0,-3.68212 2.93691,-6.67761 6.54801,-6.67761 M 13.3214,0 C 5.9683,0 0,6.08232 0,13.5861 V 86.9153 H 26.6388 V 13.5861 C 26.6388,6.08232 20.6774,0 13.3214,0 Z"
                               transform="translate(0.625,0.625)"
                               id="shape9"
                               style="fill:#ffffff;fill-opacity:1;stroke:#ffffff;stroke-opacity:1" />
                          </g>
                          <rect
                             height="33.094398pt"
                             width="14.350734pt"
                             id="shape10"
                             x="14.446821"
                             y="46.605999"
                             style="fill:#ffffff;fill-opacity:1;stroke-width:0.64577037;stroke:#ffffff;stroke-opacity:1" />
                        </g>
                        <g
                           transform="matrix(1.0735155,0,0,1.0735155,65.4385,7.1030613)"
                           id="group8"
                           style="fill:none">
                          <g
                             id="group9"
                             style="fill:none">
                            <g
                               id="group10"
                               style="fill:none">
                              <path
                                 d="m 58.1328,139.25 c -0.865,0 -1.727,-0.247 -2.4759,-0.741 L 14.1688,111.217 c -1.2685,-0.833 -2.0314,-2.251 -2.0304,-3.77 10e-4,-1.518 0.7659,-2.935 2.0354,-3.768 L 55.6619,76.4645 c 0.7479,-0.4899 1.6079,-0.7373 2.4709,-0.7373 0.7349,0 1.4707,0.1803 2.1405,0.542 1.4568,0.7864 2.3638,2.3101 2.3638,3.9661 v 13.2909 c 2.515,-1.3013 4.7737,-2.9383 6.733,-4.8838 2.4189,-2.3963 4.3541,-5.2664 5.7568,-8.5333 1.3897,-3.2388 2.0945,-6.7411 2.0945,-10.4077 0,-2.3412 -0.2683,-4.6354 -0.796,-6.8193 -0.5156,-2.1288 -1.3235,-4.1945 -2.4018,-6.136 -1.2064,-2.1719 -0.4295,-4.9109 1.7381,-6.1241 l 10.988,-6.15 c 0.6958,-0.3897 1.4507,-0.575 2.1956,-0.575 1.5728,0 3.1006,0.8264 3.9286,2.2951 1.9723,3.4993 3.5001,7.2711 4.5414,11.2091 1.0412,3.9481 1.5688,8.0856 1.5688,12.3002 0,4.4399 -0.5857,8.7808 -1.739,12.9022 -1.1564,4.1144 -2.8113,8.0064 -4.9188,11.5718 -2.0965,3.5574 -4.6566,6.8606 -7.606,9.8126 -2.9465,2.946 -6.2625,5.51 -9.8577,7.62 -3.6063,2.113 -7.5049,3.765 -11.5887,4.91 -0.2113,0.06 -0.4225,0.117 -0.6358,0.173 v 18.051 c 0,1.657 -0.909,3.182 -2.3668,3.969 -0.6698,0.36 -1.4056,0.539 -2.1385,0.539 z M 10.0399,95.2764 c -1.58489,0 -3.12271,-0.8395 -3.94469,-2.3242 C 4.07582,89.3046 2.539,85.4697 1.52681,81.5557 0.513608,77.6457 0,73.6034 0,69.5471 0,62.854 1.30154,56.4565 3.86858,50.5339 6.41259,44.6563 9.92374,39.453 14.3049,35.0701 c 4.3752,-4.3799 9.5593,-7.8922 15.4073,-10.4408 2.1465,-0.9347 4.3671,-1.7061 6.6348,-2.3051 V 4.50811 c 0,-1.65598 0.9081,-3.17872 2.3638,-3.966135 C 39.3806,0.180324 40.1175,0 40.8513,0 c 0.8631,0 1.7231,0.247445 2.471,0.738328 L 84.8114,27.9543 c 1.2705,0.8335 2.0354,2.25 2.0354,3.7698 0,1.5197 -0.7649,2.9372 -2.0354,3.7707 l -41.4891,27.215 c -0.7479,0.4899 -1.6079,0.7373 -2.47,0.7373 -0.7348,0 -1.4717,-0.1793 -2.1415,-0.542 C 37.2541,62.1177 36.347,60.595 36.347,58.939 V 45.5599 c -2.513,1.3154 -4.7666,2.9644 -6.7189,4.9199 -2.4249,2.4254 -4.3662,5.3145 -5.7699,8.5864 -1.3886,3.2328 -2.0924,6.7602 -2.0924,10.4829 0,2.234 0.2763,4.462 0.8219,6.6219 0.5377,2.1358 1.3827,4.2316 2.512,6.2312 0.5917,1.0479 0.7409,2.2891 0.4125,3.4462 -0.3284,1.1581 -1.1053,2.1368 -2.1586,2.7189 l -11.1401,6.1501 c -0.6909,0.3786 -1.4367,0.559 -2.1736,0.559 z"
                                 transform="translate(5.126,5.125)"
                                 id="shape11"
                                 style="fill:#ffffff;stroke:none;fill-opacity:1" />
                            </g>
                          </g>
                        </g>
                      </g>
                    </g>
                  </g>
                </g>
              </g>
            </g>
          </g>
        </g>
      </g>
    </g>
  </g>
</svg>
